<?xml version="1.0" encoding="UTF-8"?><svg id="Layer_2" xmlns="http://www.w3.org/2000/svg" width="228" height="33" viewBox="0 0 228 33"><defs><style>.cls-1{fill:#fbb040;stroke-width:0px;}</style></defs><g id="Layer_1-2"><path class="cls-1" d="M17.17,0l5.32,10.85,11.87,1.74-8.6,8.46,2.03,11.94-10.62-5.63-10.6,5.63,2.03-11.94L0,12.6l11.87-1.74L17.17,0Z"/><path class="cls-1" d="M65.59,0l5.3,10.85,11.87,1.74-8.58,8.46,2.03,11.94-10.62-5.63-10.62,5.63,2.03-11.94-8.58-8.46,11.85-1.74,5.32-10.85Z"/><path class="cls-1" d="M113.99,0l5.32,10.85,11.87,1.74-8.6,8.46,2.03,11.94-10.62-5.63-10.6,5.63,2.03-11.94-8.6-8.46,11.87-1.74,5.3-10.85Z"/><path class="cls-1" d="M162.41,0l5.3,10.85,11.87,1.74-8.58,8.46,2.03,11.94-10.62-5.63-10.62,5.63,2.02-11.94-8.58-8.46,11.87-1.74,5.3-10.85Z"/><path class="cls-1" d="M210.8,0l5.32,10.85,11.87,1.74-8.6,8.46,2.03,11.94-10.62-5.63-10.6,5.63,2.03-11.94-8.6-8.46,11.87-1.74,5.3-10.85Z"/></g></svg>