<?xml version="1.0" encoding="UTF-8"?><svg id="Layer_2" xmlns="http://www.w3.org/2000/svg" width="50" height="50.82" viewBox="0 0 50 50.82"><defs><style>.cls-1{fill:#be167b;}.cls-1,.cls-2{stroke-width:0px;}.cls-2{fill:#fff;}</style></defs><g id="Outros_Serviços"><path class="cls-1" d="M25.01,46.43c-4.62,0-9.24,0-13.86,0q-.7,0-.7.67c0,.67,0,1.34,0,2.01-.01.99-.71,1.69-1.69,1.7-1.52,0-3.04,0-4.57,0-1.06,0-1.75-.7-1.75-1.77,0-1.76-.02-3.52,0-5.28,0-.5-.14-.85-.49-1.21-1.41-1.46-2.11-3.22-1.94-5.25.1-1.18.37-2.34.6-3.5.39-2,.81-3.99,1.34-5.96.07-.24.02-.42-.13-.61-.42-.51-.8-1.04-1.04-1.66-.45-1.17,0-1.96,1.24-2.21.58-.12,1.17-.06,1.75-.06.34,0,.49-.11.59-.44.74-2.4,1.53-4.78,2.51-7.1.47-1.12,1.02-2.2,1.64-3.24.72-1.19,1.72-1.68,3.09-1.81,3.91-.37,7.81-.63,11.74-.68,2.85-.03,5.69.04,8.53.17,2.34.11,4.67.37,7,.57,1.27.11,2,.82,2.61,1.78,1.02,1.59,1.73,3.34,2.38,5.1.63,1.7,1.23,3.41,1.72,5.16.11.39.3.5.68.49.6-.02,1.2-.06,1.79.07,1.12.26,1.55,1.02,1.15,2.1-.21.57-.49,1.1-.91,1.54-.32.34-.34.66-.23,1.1.76,2.9,1.38,5.84,1.82,8.81.31,2.09-.3,3.93-1.73,5.47-.46.49-.66.95-.64,1.61.05,1.66.02,3.32.01,4.98,0,1.15-.68,1.83-1.81,1.83-1.47,0-2.93,0-4.4,0-1.12,0-1.79-.67-1.8-1.81,0-.7-.02-1.4,0-2.09.01-.37-.11-.49-.48-.49-1.13.02-2.26,0-3.39,0-3.56,0-7.12,0-10.68,0ZM25.04,23.23c5.56,0,11.11,0,16.67,0,.51,0,.51,0,.35-.49-.5-1.49-1-2.99-1.57-4.46-.51-1.3-1-2.61-1.7-3.82-.13-.23-.29-.35-.56-.37-.81-.07-1.61-.16-2.41-.24-3-.32-6.01-.42-9.02-.48-3.34-.06-6.67.04-10,.25-1.64.11-3.28.25-4.92.45-.34.04-.55.19-.71.49-.54.98-.97,2.01-1.38,3.05-.68,1.71-1.28,3.46-1.87,5.2-.1.31-.02.42.29.41.13,0,.25,0,.38,0,5.49,0,10.97,0,16.46,0ZM25,36.11c2.61,0,5.22,0,7.83,0,.28,0,.55-.03.78-.23.4-.37.55-.86.38-1.32-.17-.46-.62-.75-1.19-.75-5.19,0-10.38,0-15.58,0-.07,0-.14,0-.21,0-.82.07-1.31.94-.94,1.67.24.48.66.64,1.18.64,2.58,0,5.16,0,7.75,0ZM39.35,35.13c0,1.49,1.25,2.74,2.72,2.72,1.43-.02,2.65-1.26,2.66-2.69,0-1.46-1.23-2.69-2.69-2.69-1.43,0-2.68,1.25-2.68,2.66ZM7.97,32.47c-1.44-.01-2.71,1.26-2.7,2.7,0,1.42,1.25,2.71,2.63,2.68,1.69-.03,2.67-1.21,2.74-2.67.07-1.45-1.21-2.7-2.67-2.71Z"/><path class="cls-1" d="M29.75,19.06c-.29,0-.58-.08-.83-.22l-3.92-2.18-3.92,2.18c-.26.14-.54.22-.83.22-.51,0-1-.23-1.33-.63-.33-.39-.46-.91-.36-1.42l.86-4.4-3.28-3.06c-.49-.46-.67-1.14-.46-1.79.21-.64.75-1.09,1.42-1.17l4.45-.54,1.89-4.06c.28-.61.88-.99,1.55-.99s1.27.38,1.56.99l1.89,4.06,4.45.54c.67.08,1.22.53,1.42,1.17.21.64.03,1.33-.46,1.79l-3.28,3.06.86,4.4c.1.51-.03,1.02-.36,1.42-.33.4-.81.63-1.33.63Z"/><path class="cls-2" d="M25,2c.26,0,.52.14.65.41l1.96,4.21c.1.22.32.38.56.41l4.61.56c.6.07.85.82.4,1.23l-3.4,3.16c-.18.17-.26.42-.21.66l.89,4.56c.09.47-.28.85-.7.85-.11,0-.23-.03-.35-.09l-4.06-2.25c-.11-.06-.23-.09-.35-.09s-.24.03-.35.09l-4.06,2.25c-.11.06-.23.09-.35.09-.42,0-.79-.39-.7-.85l.89-4.56c.05-.24-.03-.49-.21-.66l-3.4-3.16c-.45-.41-.2-1.16.4-1.23l4.61-.56c.25-.03.46-.18.56-.41l1.96-4.21c.13-.28.39-.41.65-.41M25,0c-1.07,0-2.01.6-2.46,1.57l-1.66,3.56-3.9.48c-1.06.13-1.92.84-2.25,1.86-.33,1.02-.05,2.1.73,2.83l2.88,2.68-.75,3.86c-.16.8.05,1.62.57,2.24.52.63,1.29.99,2.1.99.46,0,.91-.12,1.32-.34l3.44-1.91,3.44,1.91c.4.22.86.34,1.32.34.81,0,1.58-.36,2.1-.99.52-.63.72-1.44.57-2.24l-.75-3.86,2.88-2.68c.78-.73,1.06-1.81.73-2.83s-1.19-1.73-2.25-1.86l-3.9-.48-1.66-3.56c-.45-.97-1.39-1.57-2.46-1.57h0Z"/></g></svg>