<?xml version="1.0" encoding="UTF-8"?>
<svg id="uuid-1c1c1c91-ef2f-40a9-b999-eb1f36270fd2" data-name="Layer 2" xmlns="http://www.w3.org/2000/svg" viewBox="0 0 19 19.1">
  <defs>
    <style>
      .uuid-b981a8d9-0347-440c-8e95-b86e0854028e {
        fill: #fff;
        fill-rule: evenodd;
        stroke-width: 0px;
      }
    </style>
  </defs>
  <g id="uuid-6837016d-37f5-41e4-a2b1-fa2bedf86ecf" data-name="Layer 1">
    <path class="uuid-b981a8d9-0347-440c-8e95-b86e0854028e" d="M16.23,2.78C14.45.99,12.07,0,9.54,0,4.32,0,.08,4.24.08,9.46c0,1.67.43,3.3,1.26,4.73l-1.34,4.9,5.02-1.32c1.38.75,2.94,1.15,4.52,1.15h0c5.21,0,9.46-4.24,9.46-9.46,0-2.53-.98-4.91-2.77-6.69ZM9.54,17.33h0c-1.41,0-2.8-.38-4-1.1l-.29-.17-2.98.78.79-2.9-.19-.3c-.79-1.25-1.2-2.7-1.2-4.19,0-4.34,3.53-7.86,7.87-7.86,2.1,0,4.07.82,5.56,2.31,1.49,1.49,2.3,3.46,2.3,5.56,0,4.34-3.53,7.87-7.86,7.87ZM13.85,11.44c-.24-.12-1.4-.69-1.62-.77-.22-.08-.37-.12-.53.12-.16.24-.61.77-.75.93-.14.16-.28.18-.51.06-.24-.12-1-.37-1.9-1.17-.7-.63-1.18-1.4-1.32-1.64-.14-.24-.01-.37.1-.48.11-.11.24-.28.35-.41.12-.14.16-.24.24-.39.08-.16.04-.3-.02-.41-.06-.12-.53-1.28-.73-1.76-.19-.46-.39-.4-.53-.41-.14,0-.3,0-.45,0s-.41.06-.63.3c-.22.24-.83.81-.83,1.97s.85,2.29.96,2.44c.12.16,1.67,2.55,4.04,3.57.56.24,1,.39,1.35.5.57.18,1.08.16,1.49.1.45-.07,1.4-.57,1.6-1.12.2-.55.2-1.03.14-1.12-.06-.1-.22-.16-.45-.28Z"/>
  </g>
</svg>