<?xml version="1.0" encoding="UTF-8"?><svg id="Layer_2" xmlns="http://www.w3.org/2000/svg" width="76" height="73" viewBox="0 0 76 73"><defs><style>.cls-1{fill:#fff;}.cls-1,.cls-2{stroke-width:0px;}.cls-2{fill:#ed1e79;opacity:0;}</style></defs><g id="Engate"><rect class="cls-2" width="76" height="73"/><rect class="cls-1" x="5" y="53.38" width="15.5" height="4.27"/><path class="cls-1" d="M49.33,57.66h-1.69v-4.27h1.69c2.69,0,5.06-1.82,5.76-4.42l3.55-13.18c.57-2.1-.06-4.34-1.62-5.85l-19.83-19.12c-1.12-1.08-2.59-1.67-4.14-1.67H5v-4.27h28.05c2.67,0,5.19,1.02,7.11,2.87l19.83,19.12c2.68,2.59,3.75,6.43,2.78,10.03l-3.55,13.18c-1.2,4.46-5.27,7.58-9.89,7.58Z"/><path class="cls-1" d="M33.98,68.13c-8.13,0-14.74-6.61-14.74-14.74s6.61-14.74,14.74-14.74,14.74,6.61,14.74,14.74-6.61,14.74-14.74,14.74ZM33.98,42.91c-5.78,0-10.47,4.7-10.47,10.47s4.7,10.47,10.47,10.47,10.47-4.7,10.47-10.47-4.7-10.47-10.47-10.47Z"/><path class="cls-1" d="M42.04,33.49H5v-4.27h37.05c.34,0,.49-.2.56-.38.07-.17.11-.43-.13-.67l-11.57-11.57c-.11-.11-.27-.18-.43-.18H5v-4.27h25.48c1.3,0,2.53.51,3.45,1.43l11.57,11.57c1.4,1.4,1.82,3.49,1.06,5.32-.76,1.83-2.53,3.01-4.51,3.01Z"/><path class="cls-1" d="M53.3,52.27l-5.63-9.25c-1.01-1.65-1.04-3.65-.09-5.34.95-1.69,2.67-2.69,4.61-2.69h8.31v4.27h-8.31c-.53,0-.8.36-.88.52-.09.16-.26.57.02,1.02l5.63,9.25-3.65,2.22Z"/><path class="cls-1" d="M67,61.21h-11.19l-5.06-4.22c-.91-.76-1.03-2.1-.27-3.01.76-.91,2.1-1.03,3.01-.27l3.87,3.22h9.65c1.18,0,2.14.96,2.14,2.14s-.96,2.14-2.14,2.14Z"/><rect class="cls-1" x="63.24" y="53.35" width="7.51" height="10"/><rect class="cls-1" x="65.64" y="50.35" width="2.72" height="15.34"/><circle class="cls-1" cx="67" cy="47.64" r="4.01"/></g></svg>