<?xml version="1.0" encoding="UTF-8"?><svg id="Layer_2" xmlns="http://www.w3.org/2000/svg" width="64.1" height="54.86" viewBox="0 0 64.1 54.86"><defs><style>.cls-1{fill:#fff;stroke-width:0px;}</style></defs><g id="Sensor_Camera_Ré"><path class="cls-1" d="M18.57,0h-5.85c-.12,0-.22.05-.33.07-.95.07-1.79.72-1.99,1.7L.05,52.23c-.24,1.18.52,2.34,1.7,2.58.15.03.3.04.44.04,1.02,0,1.93-.71,2.14-1.75l1.21-5.91h10.22c1.21,0,2.19-.98,2.19-2.19s-.98-2.19-2.19-2.19H6.44l2.21-10.74h8.11c1.21,0,2.19-.98,2.19-2.19s-.98-2.19-2.19-2.19h-7.21l2.23-10.83h5.98c1.21,0,2.19-.98,2.19-2.19s-.98-2.19-2.19-2.19h-5.09l1.67-8.14h4.23c1.21,0,2.19-.98,2.19-2.19s-.98-2.19-2.19-2.19Z"/><path class="cls-1" d="M64.06,52.23L53.69,1.77c-.2-.98-1.04-1.64-1.99-1.7-.11-.02-.21-.07-.33-.07h-5.85c-1.21,0-2.19.98-2.19,2.19s.98,2.19,2.19,2.19h4.23l1.67,8.14h-5.09c-1.21,0-2.19.98-2.19,2.19s.98,2.19,2.19,2.19h5.98l2.23,10.83h-7.21c-1.21,0-2.19.98-2.19,2.19s.98,2.19,2.19,2.19h8.11l2.21,10.74h-9.32c-1.21,0-2.19.98-2.19,2.19s.98,2.19,2.19,2.19h10.22l1.21,5.91c.21,1.03,1.12,1.75,2.14,1.75.15,0,.29-.01.44-.04,1.18-.24,1.94-1.4,1.7-2.58Z"/><polygon class="cls-1" points="30.14 28.89 36.66 28.89 36.66 25.78 30.14 25.78 30.14 23.31 37.54 23.31 37.54 20.1 26.02 20.1 26.02 34.78 37.82 34.78 37.82 31.57 30.14 31.57 30.14 28.89"/></g></svg>