<?xml version="1.0" encoding="UTF-8"?><svg id="Layer_2" xmlns="http://www.w3.org/2000/svg" width="76" height="73" viewBox="0 0 76 73"><defs><style>.cls-1{fill:#fff;}.cls-1,.cls-2{stroke-width:0px;}.cls-2{fill:#ed1e79;opacity:0;}</style></defs><g id="Auto_Elétrico"><path class="cls-1" d="M64.14,57.92c-.47-3.11-1.12-6.19-1.91-9.24-.12-.46-.1-.8.24-1.15.44-.46.74-1.02.96-1.61.41-1.13-.03-1.93-1.21-2.2-.62-.14-1.26-.09-1.88-.08-.4.01-.6-.1-.72-.51-.52-1.83-1.15-3.62-1.81-5.41-.68-1.85-1.43-3.68-2.49-5.35-.64-1-1.41-1.75-2.74-1.87-2.19-.19-4.37-.41-6.56-.55l-1.94,3.4c1.76.08,3.52.18,5.27.37.84.09,1.69.18,2.53.26.28.02.45.15.58.39.73,1.27,1.25,2.64,1.78,4.01.6,1.54,1.13,3.11,1.65,4.67.17.51.16.51-.37.51-5.83,0-11.66,0-17.48,0-5.75,0-11.51,0-17.26,0-.13,0-.26,0-.4,0-.32,0-.41-.11-.3-.43.62-1.83,1.25-3.66,1.96-5.46.43-1.09.88-2.17,1.45-3.2.17-.31.39-.46.75-.51,1.71-.22,3.43-.36,5.16-.48.77-.05,1.53-.07,2.3-.11v-3.5c-2.58.13-5.16.3-7.73.54-1.43.14-2.49.64-3.24,1.89-.66,1.1-1.23,2.23-1.73,3.4-1.02,2.43-1.85,4.93-2.63,7.45-.11.34-.27.46-.62.46-.61,0-1.23-.06-1.84.06-1.3.26-1.77,1.09-1.3,2.32.25.65.65,1.21,1.09,1.74.16.2.21.39.14.64-.55,2.06-1,4.15-1.41,6.25-.24,1.22-.52,2.44-.63,3.68-.18,2.14.55,3.98,2.03,5.51.36.38.52.74.51,1.27-.03,1.84-.01,3.69-.01,5.53,0,1.12.72,1.85,1.83,1.86,1.6,0,3.19,0,4.79,0,1.03,0,1.76-.74,1.77-1.78,0-.7,0-1.41,0-2.11q0-.71.73-.71c4.85,0,9.69,0,14.54,0,3.73,0,7.47,0,11.2,0,1.19,0,2.37.01,3.56,0,.38,0,.52.13.5.51-.02.73-.01,1.46,0,2.2,0,1.19.71,1.89,1.88,1.9,1.54,0,3.07,0,4.61,0,1.19,0,1.9-.72,1.9-1.92,0-1.74.03-3.49-.01-5.23-.02-.7.19-1.18.67-1.69,1.5-1.61,2.15-3.54,1.82-5.73ZM20.06,58.9c-1.44.03-2.74-1.33-2.75-2.81,0-1.51,1.32-2.84,2.83-2.83,1.53.01,2.87,1.32,2.8,2.84-.07,1.52-1.1,2.76-2.87,2.8ZM47.03,56.83c-.24.22-.52.25-.82.25-2.74,0-5.48,0-8.21,0-2.71,0-5.42,0-8.12,0-.54,0-.98-.16-1.24-.67-.39-.77.12-1.68.98-1.75.07,0,.15,0,.22,0,5.45,0,10.89,0,16.34,0,.6,0,1.08.31,1.25.79.18.48.02,1-.4,1.39ZM55.9,58.9c-1.54.02-2.85-1.29-2.85-2.85,0-1.49,1.32-2.79,2.81-2.79,1.53,0,2.83,1.3,2.83,2.82,0,1.51-1.29,2.8-2.79,2.82Z"/><polygon class="cls-1" points="47.7 20.52 41.1 20.52 41.1 .5 28.3 22.96 34.9 22.96 34.9 42.98 47.7 20.52"/><rect class="cls-2" width="76" height="73"/></g></svg>