<?xml version="1.0" encoding="UTF-8"?>
<svg id="uuid-56eed18e-f8f2-4e28-9bb5-43406ef628ed" data-name="Layer 2" xmlns="http://www.w3.org/2000/svg" viewBox="0 0 40 40">
  <defs>
    <style>
      .uuid-f97a52b4-ffc0-4042-ab8b-8799647a577b {
        fill: #fff;
        fill-rule: evenodd;
      }

      .uuid-f97a52b4-ffc0-4042-ab8b-8799647a577b, .uuid-bdbfa5d5-5996-41f4-9b6b-5de89ddc65ae {
        stroke-width: 0px;
      }

      .uuid-bdbfa5d5-5996-41f4-9b6b-5de89ddc65ae {
        fill: #25d366;
      }
    </style>
  </defs>
  <g id="uuid-c13440f8-fc94-4e7f-991e-d9767c620fc5" data-name="Layer 1">
    <g>
      <rect class="uuid-bdbfa5d5-5996-41f4-9b6b-5de89ddc65ae" width="40" height="40" rx="8" ry="8"/>
      <path class="uuid-f97a52b4-ffc0-4042-ab8b-8799647a577b" d="M30.29,9.75c-2.48-2.48-5.78-3.85-9.3-3.86-7.24,0-13.14,5.9-13.14,13.14,0,2.32.6,4.58,1.76,6.57l-1.86,6.81,6.97-1.83c1.92,1.05,4.08,1.6,6.28,1.6h0c7.24,0,13.14-5.9,13.14-13.14,0-3.51-1.36-6.82-3.84-9.3ZM21,29.97h0c-1.96,0-3.88-.53-5.56-1.52l-.4-.24-4.13,1.08,1.1-4.03-.26-.41c-1.09-1.74-1.67-3.75-1.67-5.82,0-6.02,4.9-10.92,10.93-10.92,2.92,0,5.66,1.14,7.72,3.2,2.06,2.06,3.2,4.81,3.2,7.73,0,6.03-4.9,10.93-10.92,10.93ZM26.99,21.79c-.33-.16-1.94-.96-2.24-1.07-.3-.11-.52-.16-.74.16-.22.33-.85,1.07-1.04,1.29-.19.22-.38.25-.71.08-.33-.16-1.39-.51-2.64-1.63-.98-.87-1.64-1.95-1.83-2.28-.19-.33-.02-.51.14-.67.15-.15.33-.38.49-.58.16-.19.22-.33.33-.55.11-.22.06-.41-.03-.58-.08-.16-.74-1.78-1.01-2.44-.27-.64-.54-.55-.74-.56-.19,0-.41-.01-.63-.01s-.58.08-.88.41c-.3.33-1.15,1.12-1.15,2.74s1.18,3.18,1.34,3.4c.16.22,2.32,3.54,5.61,4.96.78.34,1.4.54,1.87.69.79.25,1.5.22,2.07.13.63-.1,1.94-.8,2.22-1.56.27-.77.27-1.42.19-1.56-.08-.14-.3-.22-.63-.38Z"/>
    </g>
  </g>
</svg>