<?xml version="1.0" encoding="UTF-8"?>
<svg id="uuid-3d27edb1-4308-4895-aeb6-52b6702b6636" data-name="Layer 2" xmlns="http://www.w3.org/2000/svg" xmlns:xlink="http://www.w3.org/1999/xlink" viewBox="0 0 23 23">
  <defs>
    <style>
      .uuid-f3af91e0-1c2e-4b02-b5f1-9fa2b5d032cb {
        clip-path: url(#uuid-d938d677-633b-45d6-a75e-dc7618b3d318);
      }

      .uuid-c6d50ae6-ed6a-448d-9991-3d58f3fd27b0 {
        fill: none;
        stroke-width: 0px;
      }

      .uuid-f7c151d4-4872-485b-ab7a-84bed19f1239 {
        fill: #fff;
        stroke: #fff;
        stroke-linecap: round;
        stroke-linejoin: round;
      }
    </style>
    <clipPath id="uuid-d938d677-633b-45d6-a75e-dc7618b3d318">
      <rect class="uuid-c6d50ae6-ed6a-448d-9991-3d58f3fd27b0" width="23" height="23"/>
    </clipPath>
  </defs>
  <g id="uuid-7a5d0918-ca7a-44cd-ba18-225cd92c9b45" data-name="Layer 1">
    <g class="uuid-f3af91e0-1c2e-4b02-b5f1-9fa2b5d032cb">
      <path class="uuid-f7c151d4-4872-485b-ab7a-84bed19f1239" d="M22.03,5.91c-.03-.17-.1-.34-.2-.48-.1-.14-.23-.27-.38-.36l-3.29,3.29c-.15.16-.34.29-.54.37-.2.09-.42.13-.64.13s-.44-.04-.64-.13c-.2-.09-.39-.21-.54-.37l-1.25-1.12c-.3-.31-.47-.72-.47-1.15s.17-.84.47-1.15l3.29-3.29c-.07-.17-.18-.32-.32-.44-.14-.12-.3-.21-.47-.27-1.15-.23-2.33-.13-3.43.28-1.09.41-2.05,1.13-2.76,2.05-.71.93-1.14,2.04-1.25,3.2-.1,1.09.08,2.19.54,3.18L1.34,18.48c-.65.65-.64,1.71.02,2.35l.92.88c.64.62,1.66.61,2.29-.02l8.92-8.82c.96.4,2.02.55,3.06.44,1.15-.12,2.25-.56,3.16-1.27.92-.71,1.62-1.66,2.03-2.74.41-1.08.51-2.26.29-3.4Z"/>
    </g>
  </g>
</svg>