<?xml version="1.0" encoding="UTF-8"?><svg id="Layer_2" xmlns="http://www.w3.org/2000/svg" width="76" height="73" viewBox="0 0 76 73"><defs><style>.cls-1{fill:#fff;}.cls-1,.cls-2{stroke-width:0px;}.cls-2{fill:#ed1e79;opacity:0;}</style></defs><g id="Camera_Ré"><rect class="cls-2" width="76" height="73"/><path class="cls-1" d="M24.52,9.07h-5.85c-.12,0-.22.05-.33.07-.95.07-1.79.72-1.99,1.7L5.99,61.3c-.24,1.18.52,2.34,1.7,2.58.15.03.3.04.44.04,1.02,0,1.93-.71,2.14-1.75l1.21-5.91h10.22c1.21,0,2.19-.98,2.19-2.19s-.98-2.19-2.19-2.19h-9.32l2.21-10.74h8.11c1.21,0,2.19-.98,2.19-2.19s-.98-2.19-2.19-2.19h-7.21l2.23-10.83h5.98c1.21,0,2.19-.98,2.19-2.19s-.98-2.19-2.19-2.19h-5.09l1.67-8.14h4.23c1.21,0,2.19-.98,2.19-2.19s-.98-2.19-2.19-2.19Z"/><path class="cls-1" d="M70.01,61.3l-10.37-50.46c-.2-.98-1.04-1.64-1.99-1.7-.11-.02-.21-.07-.33-.07h-5.85c-1.21,0-2.19.98-2.19,2.19s.98,2.19,2.19,2.19h4.23l1.67,8.14h-5.09c-1.21,0-2.19.98-2.19,2.19s.98,2.19,2.19,2.19h5.98l2.23,10.83h-7.21c-1.21,0-2.19.98-2.19,2.19s.98,2.19,2.19,2.19h8.11l2.21,10.74h-9.32c-1.21,0-2.19.98-2.19,2.19s.98,2.19,2.19,2.19h10.22l1.21,5.91c.21,1.03,1.12,1.75,2.14,1.75.15,0,.29-.01.44-.04,1.18-.24,1.94-1.4,1.7-2.58Z"/><polygon class="cls-1" points="36.09 37.96 42.61 37.96 42.61 34.85 36.09 34.85 36.09 32.38 43.49 32.38 43.49 29.17 31.97 29.17 31.97 43.86 43.77 43.86 43.77 40.65 36.09 40.65 36.09 37.96"/></g></svg>