<?xml version="1.0" encoding="UTF-8"?>
<svg id="uuid-c9f02b2e-c5d7-44ab-9f9f-c1656930f815" data-name="Layer 2" xmlns="http://www.w3.org/2000/svg" viewBox="0 0 23 23">
  <defs>
    <style>
      .uuid-869e6170-02ce-470b-995f-429c73bf3a0f {
        fill: #fff;
        fill-rule: evenodd;
        stroke-width: 0px;
      }
    </style>
  </defs>
  <g id="uuid-b8a07819-acd0-424e-9faa-75155ea77b99" data-name="Layer 1">
    <path class="uuid-869e6170-02ce-470b-995f-429c73bf3a0f" d="M19.65,3.34C17.49,1.19,14.61,0,11.55,0,5.24,0,.09,5.11.09,11.4c0,2.01.53,3.97,1.53,5.7l-1.62,5.91,6.07-1.58c1.67.91,3.56,1.39,5.47,1.39h0c6.31,0,11.45-5.11,11.45-11.4,0-3.05-1.18-5.91-3.35-8.06ZM11.55,20.88h0c-1.71,0-3.38-.46-4.84-1.32l-.35-.2-3.6.94.96-3.5-.23-.36c-.95-1.51-1.46-3.25-1.46-5.04,0-5.22,4.27-9.47,9.53-9.47,2.54,0,4.93.99,6.73,2.78,1.8,1.79,2.79,4.17,2.78,6.7,0,5.23-4.27,9.47-9.52,9.47ZM16.77,13.78c-.29-.14-1.69-.83-1.96-.93-.26-.09-.45-.14-.64.14-.19.28-.74.93-.91,1.12-.17.19-.33.22-.62.07s-1.21-.44-2.3-1.41c-.85-.76-1.43-1.69-1.59-1.97-.17-.28-.02-.44.13-.58.13-.13.29-.33.43-.5.14-.17.19-.28.29-.48.09-.19.05-.36-.02-.5-.07-.14-.64-1.54-.88-2.12-.23-.55-.47-.48-.64-.49-.17,0-.36-.01-.55-.01s-.5.07-.76.36c-.26.28-1,.97-1,2.38s1.02,2.76,1.17,2.94c.14.19,2.02,3.07,4.89,4.3.68.29,1.22.47,1.63.6.69.22,1.31.19,1.8.11.55-.08,1.69-.69,1.93-1.35.24-.67.24-1.23.17-1.35-.07-.12-.26-.19-.55-.33Z"/>
  </g>
</svg>