<?xml version="1.0" encoding="UTF-8"?><svg id="Layer_2" xmlns="http://www.w3.org/2000/svg" width="66" height="58" viewBox="0 0 66 58"><defs><style>.cls-1{fill:#be167b;stroke-width:0px;}</style></defs><g id="Layer_1-2"><path class="cls-1" d="M28.26,0v11.66c0,9.28-.95,16.92-2.87,22.87-1.92,5.94-5.16,11-9.75,15.15-4.6,4.15-9.8,6.93-15.64,8.32v-14.19c4.1-2.78,6.43-6.48,6.99-11.13H0V0h28.26ZM66,0v11.66c0,9.28-.95,16.92-2.87,22.87-1.92,5.94-5.18,11-9.8,15.15-4.62,4.15-9.82,6.93-15.6,8.32v-14.19c4.1-2.78,6.43-6.48,6.99-11.13h-6.99V0h28.26Z"/></g></svg>