<?xml version="1.0" encoding="UTF-8"?><svg id="Layer_2" xmlns="http://www.w3.org/2000/svg" width="73.39" height="71.71" viewBox="0 0 73.39 71.71"><defs><style>.cls-1{fill:#fff;stroke-width:0px;}</style></defs><g id="Pelicula_Edificio"><path class="cls-1" d="M32.91,20.97c-.9-.64-2.1-.64-2.99,0L1.08,41.59c-1.16.83-1.42,2.43-.6,3.59.83,1.16,2.44,1.43,3.59.6l4.75-3.39v26.76c0,1.42,1.15,2.57,2.57,2.57h40.04c1.42,0,2.57-1.15,2.57-2.57v-26.76l4.75,3.39c.45.33.98.48,1.49.48.8,0,1.59-.37,2.1-1.08.83-1.16.56-2.76-.6-3.59l-28.84-20.62ZM48.86,66.57H13.97v-27.86l17.44-12.47,17.44,12.47v27.86Z"/><rect class="cls-1" x="21.48" y="42.75" width="8.95" height="8.95" rx=".94" ry=".94"/><rect class="cls-1" x="32.39" y="42.75" width="8.95" height="8.95" rx=".94" ry=".94"/><rect class="cls-1" x="21.48" y="53.72" width="8.95" height="8.95" rx=".94" ry=".94"/><rect class="cls-1" x="32.39" y="53.72" width="8.95" height="8.95" rx=".94" ry=".94"/><path class="cls-1" d="M59.48,29.09v-3.3c0-.77-.63-1.4-1.4-1.4s-1.4.63-1.4,1.4v3.3c0,.77.63,1.4,1.4,1.4s1.4-.63,1.4-1.4Z"/><path class="cls-1" d="M47.32,24c-.55.55-.55,1.43,0,1.98.27.27.63.41.99.41s.72-.14.99-.41l2.33-2.33c.55-.55.55-1.43,0-1.98-.55-.55-1.43-.55-1.98,0l-2.33,2.33Z"/><path class="cls-1" d="M44.3,16.58h3.3c.77,0,1.4-.63,1.4-1.4s-.63-1.4-1.4-1.4h-3.3c-.77,0-1.4.63-1.4,1.4s.63,1.4,1.4,1.4Z"/><path class="cls-1" d="M49.74,8.73c.27.27.63.41.99.41s.72-.14.99-.41c.55-.55.55-1.43,0-1.98l-2.33-2.33c-.55-.55-1.43-.55-1.98,0s-.55,1.43,0,1.98l2.33,2.33Z"/><path class="cls-1" d="M58.21,6.09c.77,0,1.4-.63,1.4-1.4V1.4c0-.77-.63-1.4-1.4-1.4s-1.4.63-1.4,1.4v3.3c0,.77.63,1.4,1.4,1.4Z"/><path class="cls-1" d="M65.65,9.23c.36,0,.72-.14.99-.41l2.33-2.33c.55-.55.55-1.43,0-1.98-.55-.55-1.43-.55-1.98,0l-2.33,2.33c-.55.55-.55,1.43,0,1.98.27.27.63.41.99.41Z"/><path class="cls-1" d="M71.99,13.91h-3.3c-.77,0-1.4.63-1.4,1.4s.63,1.4,1.4,1.4h3.3c.77,0,1.4-.63,1.4-1.4s-.63-1.4-1.4-1.4Z"/><path class="cls-1" d="M66.55,21.76c-.55-.55-1.43-.55-1.98,0-.55.55-.55,1.43,0,1.98l2.33,2.33c.27.27.63.41.99.41s.72-.14.99-.41c.55-.55.55-1.43,0-1.98l-2.33-2.33Z"/><circle class="cls-1" cx="58.15" cy="15.25" r="6.78"/></g></svg>