<?xml version="1.0" encoding="UTF-8"?><svg id="Layer_2" xmlns="http://www.w3.org/2000/svg" width="69.71" height="51.3" viewBox="0 0 69.71 51.3"><defs><style>.cls-1{fill:#fff;stroke-width:0px;}</style></defs><g id="Pelicula_Automotiva"><path class="cls-1" d="M48.01,51.3H13.18c-4.69,0-8.88-2.79-10.68-7.1l-1.85-4.41c-1.38-3.28-.49-7.05,2.21-9.37l16.16-13.87c2.12-1.82,4.82-2.82,7.61-2.82h4.46c1.25,0,2.26,1.01,2.26,2.26s-1.01,2.26-2.26,2.26h-4.46c-1.71,0-3.36.61-4.66,1.73l-16.16,13.87c-1.21,1.04-1.6,2.72-.99,4.19l1.85,4.42c1.1,2.63,3.65,4.33,6.51,4.33h34.84c1.84,0,3.33-1.49,3.33-3.33v-4.81c0-1.25,1.01-2.26,2.26-2.26s2.26,1.01,2.26,2.26v4.81c0,4.33-3.52,7.85-7.85,7.85Z"/><g id="_Radial_Repeat_"><path class="cls-1" d="M53.22,32.87c-.83,0-1.51-.67-1.51-1.51v-3.55c0-.83.67-1.51,1.51-1.51s1.51.67,1.51,1.51v3.55c0,.83-.67,1.51-1.51,1.51Z"/></g><g id="_Radial_Repeat_-2"><path class="cls-1" d="M42.68,28.44c-.39,0-.77-.15-1.07-.44-.59-.59-.59-1.54,0-2.13l2.51-2.51c.59-.59,1.54-.59,2.13,0,.59.59.59,1.54,0,2.13l-2.51,2.51c-.29.29-.68.44-1.07.44Z"/></g><g id="_Radial_Repeat_-3"><path class="cls-1" d="M41.91,17.87h-3.55c-.83,0-1.51-.67-1.51-1.51s.67-1.51,1.51-1.51h3.55c.83,0,1.51.67,1.51,1.51s-.67,1.51-1.51,1.51Z"/></g><g id="_Radial_Repeat_-4"><path class="cls-1" d="M45.29,9.85c-.39,0-.77-.15-1.07-.44l-2.51-2.51c-.59-.59-.59-1.54,0-2.13s1.54-.59,2.13,0l2.51,2.51c.59.59.59,1.54,0,2.13-.29.29-.68.44-1.07.44Z"/></g><g id="_Radial_Repeat_-5"><path class="cls-1" d="M53.35,6.57c-.83,0-1.51-.67-1.51-1.51V1.51c0-.83.67-1.51,1.51-1.51s1.51.67,1.51,1.51v3.55c0,.83-.67,1.51-1.51,1.51Z"/></g><g id="_Radial_Repeat_-6"><path class="cls-1" d="M61.37,9.95c-.39,0-.77-.15-1.07-.44-.59-.59-.59-1.54,0-2.13l2.51-2.51c.59-.59,1.54-.59,2.13,0,.59.59.59,1.54,0,2.13l-2.51,2.51c-.29.29-.68.44-1.07.44Z"/></g><g id="_Radial_Repeat_-7"><path class="cls-1" d="M68.21,18.01h-3.55c-.83,0-1.51-.67-1.51-1.51s.67-1.51,1.51-1.51h3.55c.83,0,1.51.67,1.51,1.51s-.67,1.51-1.51,1.51Z"/></g><g id="_Radial_Repeat_-8"><path class="cls-1" d="M63.79,28.54c-.39,0-.77-.15-1.07-.44l-2.51-2.51c-.59-.59-.59-1.54,0-2.13s1.54-.59,2.13,0l2.51,2.51c.59.59.59,1.54,0,2.13-.29.29-.68.44-1.07.44Z"/></g><circle class="cls-1" cx="53.28" cy="16.43" r="7.31"/></g></svg>