<?xml version="1.0" encoding="UTF-8"?><svg id="Layer_2" xmlns="http://www.w3.org/2000/svg" width="50" height="47.73" viewBox="0 0 50 47.73"><defs><style>.cls-1{fill:#be167b;}.cls-1,.cls-2{stroke-width:0px;}.cls-2{fill:#fff;}</style></defs><g id="Outros_Serviços"><path class="cls-1" d="M25.01,43.34c-4.62,0-9.24,0-13.86,0q-.7,0-.7.67c0,.67,0,1.34,0,2.01-.01.99-.71,1.69-1.69,1.7-1.52,0-3.04,0-4.57,0-1.06,0-1.75-.7-1.75-1.77,0-1.76-.02-3.52,0-5.28,0-.5-.14-.85-.49-1.21-1.41-1.46-2.11-3.22-1.94-5.25.1-1.18.37-2.34.6-3.5.39-2,.81-3.99,1.34-5.96.07-.24.02-.42-.13-.61-.42-.51-.8-1.04-1.04-1.66-.45-1.17,0-1.96,1.24-2.21.58-.12,1.17-.06,1.75-.06.34,0,.49-.11.59-.44.74-2.4,1.53-4.78,2.51-7.1.47-1.12,1.02-2.2,1.64-3.24.72-1.19,1.72-1.68,3.09-1.81,3.91-.37,7.81-.63,11.74-.68,2.85-.03,5.69.04,8.53.17,2.34.11,4.67.37,7,.57,1.27.11,2,.82,2.61,1.78,1.02,1.59,1.73,3.34,2.38,5.1.63,1.7,1.23,3.41,1.72,5.16.11.39.3.5.68.49.6-.02,1.2-.06,1.79.07,1.12.26,1.55,1.02,1.15,2.1-.21.57-.49,1.1-.91,1.54-.32.34-.34.66-.23,1.1.76,2.9,1.38,5.84,1.82,8.81.31,2.09-.3,3.93-1.73,5.47-.46.49-.66.95-.64,1.61.05,1.66.02,3.32.01,4.98,0,1.15-.68,1.83-1.81,1.83-1.47,0-2.93,0-4.4,0-1.12,0-1.79-.67-1.8-1.81,0-.7-.02-1.4,0-2.09.01-.37-.11-.49-.48-.49-1.13.02-2.26,0-3.39,0-3.56,0-7.12,0-10.68,0ZM25.04,20.14c5.56,0,11.11,0,16.67,0,.51,0,.51,0,.35-.49-.5-1.49-1-2.99-1.57-4.46-.51-1.3-1-2.61-1.7-3.82-.13-.23-.29-.35-.56-.37-.81-.07-1.61-.16-2.41-.24-3-.32-6.01-.42-9.02-.48-3.34-.06-6.67.04-10,.25-1.64.11-3.28.25-4.92.45-.34.04-.55.19-.71.49-.54.98-.97,2.01-1.38,3.05-.68,1.71-1.28,3.46-1.87,5.2-.1.31-.02.42.29.41.13,0,.25,0,.38,0,5.49,0,10.97,0,16.46,0ZM25,33.02c2.61,0,5.22,0,7.83,0,.28,0,.55-.03.78-.23.4-.37.55-.86.38-1.32-.17-.46-.62-.75-1.19-.75-5.19,0-10.38,0-15.58,0-.07,0-.14,0-.21,0-.82.07-1.31.94-.94,1.67.24.48.66.64,1.18.64,2.58,0,5.16,0,7.75,0ZM39.35,32.04c0,1.49,1.25,2.74,2.72,2.72,1.43-.02,2.65-1.26,2.66-2.69,0-1.46-1.23-2.69-2.69-2.69-1.43,0-2.68,1.25-2.68,2.66ZM7.97,29.38c-1.44-.01-2.71,1.26-2.7,2.7,0,1.42,1.25,2.71,2.63,2.68,1.69-.03,2.67-1.21,2.74-2.67.07-1.45-1.21-2.7-2.67-2.71Z"/><path class="cls-2" d="M35.43,2.45c-.45-.98-1.44-1.61-2.52-1.61-.38,0-.74.07-1.09.22-.52.22-.97.6-1.27,1.07-.18-.04-.37-.06-.56-.06-.37,0-.73.07-1.08.22l-.08.04c-.49.22-.91.59-1.19,1.04-.18-.04-.37-.06-.56-.06-.37,0-.73.07-1.08.22-.03.01-.05.03-.08.04v-.94c0-1.44-1.17-2.61-2.61-2.61-.65,0-1.28.24-1.76.69l-2.57,2.36h-2.81c-1.62,0-2.93,1.31-2.93,2.93v5.38c0,1.61,1.31,2.93,2.93,2.93h2.81l2.58,2.37c.48.44,1.11.69,1.76.69h0c.67,0,1.3-.25,1.79-.71.52-.49.82-1.18.82-1.9v-.95s.05.03.08.04c.34.14.7.22,1.08.22.19,0,.38-.03.56-.06.3.48.75.85,1.28,1.08.34.14.71.22,1.08.22.19,0,.38-.03.56-.06.3.47.75.85,1.27,1.07.35.15.71.22,1.09.22,1.09,0,2.08-.63,2.52-1.61.89-1.96,1.34-4.05,1.34-6.22s-.45-4.27-1.34-6.22Z"/><path class="cls-1" d="M32.59,2.9h0c-.4.17-.6.64-.42,1.04.65,1.44,1.02,3.05,1.02,4.74s-.36,3.29-1.02,4.74c-.18.4.01.87.42,1.04h0c.39.16.84,0,1.02-.38.75-1.64,1.16-3.47,1.16-5.39s-.41-3.75-1.16-5.39c-.17-.38-.63-.54-1.02-.38Z"/><path class="cls-1" d="M29.68,4.12h0c-.41.17-.6.65-.41,1.05.49,1.06.77,2.25.77,3.5s-.28,2.43-.77,3.5c-.19.4,0,.88.41,1.05h0c.4.17.85-.02,1.03-.42.58-1.26.9-2.66.9-4.13s-.32-2.87-.9-4.13c-.18-.39-.63-.59-1.03-.42Z"/><path class="cls-1" d="M26.76,5.35h0c-.43.18-.59.68-.39,1.1.32.67.5,1.42.5,2.22s-.18,1.55-.5,2.22c-.2.42-.04.92.39,1.1h0c.39.16.84,0,1.02-.39.43-.89.67-1.88.67-2.93s-.24-2.04-.67-2.93c-.18-.38-.63-.55-1.02-.39Z"/><path class="cls-1" d="M22.9,2.16l-3.15,2.89h-3.59c-.51,0-.93.42-.93.93v5.38c0,.51.42.93.93.93h3.59l3.15,2.89c.39.36,1.01.08,1.01-.44V2.61c0-.53-.63-.8-1.01-.44Z"/></g></svg>