<?xml version="1.0" encoding="UTF-8"?><svg id="Layer_2" xmlns="http://www.w3.org/2000/svg" width="76" height="73" viewBox="0 0 76 73"><defs><style>.cls-1{fill:#fff;}.cls-1,.cls-2{stroke-width:0px;}.cls-2{fill:#ed1e79;opacity:0;}</style></defs><g id="Pelicula_Automotiva"><path class="cls-1" d="M52.25,64.28H14.52c-5.08,0-9.62-3.02-11.57-7.69l-2.01-4.78c-1.49-3.56-.53-7.63,2.39-10.15l17.5-15.02c2.3-1.97,5.22-3.06,8.24-3.06h4.83c1.35,0,2.45,1.1,2.45,2.45s-1.1,2.45-2.45,2.45h-4.83c-1.85,0-3.64.67-5.05,1.87l-17.5,15.02c-1.31,1.12-1.74,2.95-1.07,4.54l2.01,4.78c1.19,2.85,3.95,4.69,7.05,4.69h37.73c1.99,0,3.61-1.62,3.61-3.61v-5.21c0-1.35,1.1-2.45,2.45-2.45s2.45,1.1,2.45,2.45v5.21c0,4.69-3.82,8.51-8.51,8.51Z"/><g id="_Radial_Repeat_"><path class="cls-1" d="M57.88,44.31c-.9,0-1.63-.73-1.63-1.63v-3.85c0-.9.73-1.63,1.63-1.63s1.63.73,1.63,1.63v3.85c0,.9-.73,1.63-1.63,1.63Z"/></g><g id="_Radial_Repeat_-2"><path class="cls-1" d="M46.47,39.52c-.42,0-.84-.16-1.15-.48-.64-.64-.64-1.67,0-2.31l2.72-2.72c.64-.64,1.67-.64,2.31,0,.64.64.64,1.67,0,2.31l-2.72,2.72c-.32.32-.74.48-1.15.48Z"/></g><g id="_Radial_Repeat_-3"><path class="cls-1" d="M45.64,28.07h-3.85c-.9,0-1.63-.73-1.63-1.63s.73-1.63,1.63-1.63h3.85c.9,0,1.63.73,1.63,1.63s-.73,1.63-1.63,1.63Z"/></g><g id="_Radial_Repeat_-4"><path class="cls-1" d="M49.3,19.39c-.42,0-.84-.16-1.15-.48l-2.72-2.72c-.64-.64-.64-1.67,0-2.31s1.67-.64,2.31,0l2.72,2.72c.64.64.64,1.67,0,2.31-.32.32-.74.48-1.15.48Z"/></g><g id="_Radial_Repeat_-5"><path class="cls-1" d="M58.03,15.83c-.9,0-1.63-.73-1.63-1.63v-3.85c0-.9.73-1.63,1.63-1.63s1.63.73,1.63,1.63v3.85c0,.9-.73,1.63-1.63,1.63Z"/></g><g id="_Radial_Repeat_-6"><path class="cls-1" d="M66.72,19.49c-.42,0-.84-.16-1.15-.48-.64-.64-.64-1.67,0-2.31l2.72-2.72c.64-.64,1.67-.64,2.31,0,.64.64.64,1.67,0,2.31l-2.72,2.72c-.32.32-.74.48-1.15.48Z"/></g><g id="_Radial_Repeat_-7"><path class="cls-1" d="M74.12,28.22h-3.85c-.9,0-1.63-.73-1.63-1.63s.73-1.63,1.63-1.63h3.85c.9,0,1.63.73,1.63,1.63s-.73,1.63-1.63,1.63Z"/></g><g id="_Radial_Repeat_-8"><path class="cls-1" d="M69.33,39.63c-.42,0-.84-.16-1.15-.48l-2.72-2.72c-.64-.64-.64-1.67,0-2.31s1.67-.64,2.31,0l2.72,2.72c.64.64.64,1.67,0,2.31-.32.32-.74.48-1.15.48Z"/></g><circle class="cls-1" cx="57.95" cy="26.52" r="7.92"/><rect class="cls-2" width="76" height="73"/></g></svg>