<?xml version="1.0" encoding="UTF-8"?><svg id="Layer_2" xmlns="http://www.w3.org/2000/svg" width="76" height="73" viewBox="0 0 76 73"><defs><style>.cls-1{fill:#fff;}.cls-1,.cls-2{stroke-width:0px;}.cls-2{fill:#ed1e79;opacity:0;}</style></defs><g id="LED"><rect class="cls-2" width="76" height="73"/><path class="cls-1" d="M53.61,38.83c-.81-.27-1.68-.42-2.58-.42h-26.07c-.9,0-1.77.15-2.59.42-3.26,1.08-5.61,4.15-5.61,7.77,0,4.52,3.67,8.2,8.2,8.2h26.07c4.52,0,8.2-3.68,8.2-8.2,0-3.62-2.36-6.69-5.62-7.77ZM51.03,50.8h-26.07c-2.32,0-4.2-1.88-4.2-4.2s1.88-4.19,4.2-4.19h26.07c2.31,0,4.2,1.88,4.2,4.19s-1.89,4.2-4.2,4.2Z"/><path class="cls-1" d="M53.62,40.99h-4v-22.81c0-6.41-5.21-11.62-11.62-11.62s-11.62,5.21-11.62,11.62v22.81h-4v-22.81c0-8.61,7.01-15.62,15.62-15.62s15.62,7.01,15.62,15.62v22.81Z"/><path class="cls-1" d="M34.93,28.46v13.95h-4v-13.95c0-1.1.9-2,2-2s2,.9,2,2Z"/><path class="cls-1" d="M30.93,50.8h4v12.73c0,1.11-.89,2-2,2s-2-.89-2-2v-12.73Z"/><path class="cls-1" d="M45.05,28.46v13.95h-4v-13.95c0-1.1.9-2,2-2s2,.9,2,2Z"/><path class="cls-1" d="M41.05,50.8h4v17.64c0,1.11-.9,2-2,2s-2-.89-2-2v-17.64Z"/></g></svg>