<?xml version="1.0" encoding="UTF-8"?><svg id="Layer_2" xmlns="http://www.w3.org/2000/svg" width="50" height="49.6" viewBox="0 0 50 49.6"><defs><style>.cls-1{fill:#be167b;}.cls-1,.cls-2{stroke-width:0px;}.cls-2{fill:#fff;}</style></defs><g id="Outros_Serviços"><path class="cls-1" d="M25.01,45.21c-4.62,0-9.24,0-13.86,0q-.7,0-.7.67c0,.67,0,1.34,0,2.01-.01.99-.71,1.69-1.69,1.7-1.52,0-3.04,0-4.57,0-1.06,0-1.75-.7-1.75-1.77,0-1.76-.02-3.52,0-5.28,0-.5-.14-.85-.49-1.21-1.41-1.46-2.11-3.22-1.94-5.25.1-1.18.37-2.34.6-3.5.39-2,.81-3.99,1.34-5.96.07-.24.02-.42-.13-.61-.42-.51-.8-1.04-1.04-1.66-.45-1.17,0-1.96,1.24-2.21.58-.12,1.17-.06,1.75-.06.34,0,.49-.11.59-.44.74-2.4,1.53-4.78,2.51-7.1.47-1.12,1.02-2.2,1.64-3.24.72-1.19,1.72-1.68,3.09-1.81,3.91-.37,7.81-.63,11.74-.68,2.85-.03,5.69.04,8.53.17,2.34.11,4.67.37,7,.57,1.27.11,2,.82,2.61,1.78,1.02,1.59,1.73,3.34,2.38,5.1.63,1.7,1.23,3.41,1.72,5.16.11.39.3.5.68.49.6-.02,1.2-.06,1.79.07,1.12.26,1.55,1.02,1.15,2.1-.21.57-.49,1.1-.91,1.54-.32.34-.34.66-.23,1.1.76,2.9,1.38,5.84,1.82,8.81.31,2.09-.3,3.93-1.73,5.47-.46.49-.66.95-.64,1.61.05,1.66.02,3.32.01,4.98,0,1.15-.68,1.83-1.81,1.83-1.47,0-2.93,0-4.4,0-1.12,0-1.79-.67-1.8-1.81,0-.7-.02-1.4,0-2.09.01-.37-.11-.49-.48-.49-1.13.02-2.26,0-3.39,0-3.56,0-7.12,0-10.68,0ZM25.04,22.01c5.56,0,11.11,0,16.67,0,.51,0,.51,0,.35-.49-.5-1.49-1-2.99-1.57-4.46-.51-1.3-1-2.61-1.7-3.82-.13-.23-.29-.35-.56-.37-.81-.07-1.61-.16-2.41-.24-3-.32-6.01-.42-9.02-.48-3.34-.06-6.67.04-10,.25-1.64.11-3.28.25-4.92.45-.34.04-.55.19-.71.49-.54.98-.97,2.01-1.38,3.05-.68,1.71-1.28,3.46-1.87,5.2-.1.31-.02.42.29.41.13,0,.25,0,.38,0,5.49,0,10.97,0,16.46,0ZM25,34.9c2.61,0,5.22,0,7.83,0,.28,0,.55-.03.78-.23.4-.37.55-.86.38-1.32-.17-.46-.62-.75-1.19-.75-5.19,0-10.38,0-15.58,0-.07,0-.14,0-.21,0-.82.07-1.31.94-.94,1.67.24.48.66.64,1.18.64,2.58,0,5.16,0,7.75,0ZM39.35,33.92c0,1.49,1.25,2.74,2.72,2.72,1.43-.02,2.65-1.26,2.66-2.69,0-1.46-1.23-2.69-2.69-2.69-1.43,0-2.68,1.25-2.68,2.66ZM7.97,31.26c-1.44-.01-2.71,1.26-2.7,2.7,0,1.42,1.25,2.71,2.63,2.68,1.69-.03,2.67-1.21,2.74-2.67.07-1.45-1.21-2.7-2.67-2.71Z"/><path class="cls-1" d="M24.09,19.05c-.81,0-1.54-.49-1.85-1.24l-.59-1.42c-.17-.09-.33-.18-.49-.28l-1.52.2c-.09.01-.17.02-.26.02-.71,0-1.38-.38-1.74-1l-.91-1.57c-.41-.7-.35-1.58.14-2.23l.93-1.21c0-.09-.02-.19-.02-.29s0-.19.02-.29l-.93-1.21c-.5-.65-.55-1.52-.14-2.23l.91-1.57c.36-.62,1.03-1,1.74-1,.09,0,.17,0,.26.02l1.52.2c.16-.1.32-.2.49-.28l.59-1.42c.31-.75,1.04-1.24,1.85-1.24h1.81c.81,0,1.54.49,1.85,1.24l.59,1.42c.17.09.33.18.49.28l1.52-.2c.09-.01.17-.02.26-.02.71,0,1.38.38,1.74,1l.91,1.57c.41.7.35,1.58-.14,2.23l-.93,1.21c0,.09.02.19.02.29s0,.19-.02.29l.93,1.21c.5.65.55,1.52.14,2.23l-.91,1.57c-.36.62-1.02,1-1.74,1h0c-.09,0-.17,0-.26-.02l-1.52-.2c-.16.1-.32.19-.49.28l-.59,1.42c-.31.75-1.04,1.24-1.85,1.24h-1.81ZM25,7.73c-1.27,0-2.3,1.03-2.3,2.3s1.03,2.3,2.3,2.3,2.3-1.03,2.3-2.3-1.03-2.3-2.3-2.3Z"/><path class="cls-2" d="M25.91,2c.41,0,.78.25.93.62l.72,1.74s.01.02.02.03c.36.16.7.36,1.02.59,0,0,0,0,0,0,0,0,.01,0,.02,0,0,0,0,0,0,0l1.87-.24s.09,0,.13,0c.36,0,.69.19.87.5l.91,1.57c.2.35.17.79-.07,1.12l-1.15,1.5s-.02.04-.03.06c.02.19.06.37.06.56s-.04.37-.06.56c.01.02.02.04.03.06l1.15,1.5c.25.32.28.76.07,1.12l-.91,1.57c-.18.31-.52.5-.87.5-.04,0-.09,0-.13,0l-1.87-.24s0,0,0,0c0,0-.01,0-.02,0,0,0,0,0,0,0-.32.23-.66.42-1.02.59,0,0-.01.02-.02.03l-.72,1.74c-.16.38-.52.62-.93.62h-1.81c-.41,0-.78-.25-.93-.62l-.72-1.74s-.01-.02-.02-.03c-.36-.16-.7-.36-1.02-.59,0,0,0,0,0,0,0,0-.01,0-.02,0,0,0,0,0,0,0l-1.87.24s-.09,0-.13,0c-.36,0-.69-.19-.87-.5l-.91-1.57c-.2-.35-.18-.79.07-1.12l1.15-1.5s.02-.04.03-.06c-.02-.19-.06-.37-.06-.56s.04-.37.06-.56c-.01-.02-.02-.04-.03-.06l-1.15-1.5c-.25-.32-.28-.76-.07-1.12l.91-1.57c.18-.31.52-.5.87-.5.04,0,.09,0,.13,0l1.87.24s0,0,0,0c0,0,.01,0,.02,0,0,0,0,0,0,0,.32-.23.66-.42,1.02-.59,0,0,.01-.02.02-.03l.72-1.74c.16-.38.52-.62.93-.62h1.81M25,13.32c1.82,0,3.3-1.48,3.3-3.3s-1.48-3.3-3.3-3.3-3.3,1.48-3.3,3.3,1.48,3.3,3.3,3.3M25.91,0h-1.81c-1.22,0-2.31.73-2.78,1.86l-.43,1.04-1.11-.15c-.13-.02-.26-.03-.39-.03-1.07,0-2.07.58-2.6,1.5l-.91,1.57c-.61,1.06-.52,2.37.22,3.33l.68.89-.68.89c-.74.97-.83,2.28-.22,3.33l.91,1.57c.54.93,1.53,1.5,2.6,1.5.13,0,.26,0,.39-.03l1.11-.15.43,1.04c.47,1.13,1.56,1.86,2.78,1.86h1.81c1.22,0,2.31-.73,2.78-1.86l.43-1.04,1.11.15c.13.02.26.03.39.03,1.07,0,2.07-.58,2.6-1.5l.91-1.57c.61-1.06.52-2.37-.22-3.33l-.68-.89.68-.89c.74-.97.83-2.28.22-3.33l-.91-1.57c-.54-.93-1.53-1.5-2.6-1.5-.13,0-.26,0-.39.03l-1.11.15-.43-1.04c-.47-1.13-1.56-1.86-2.78-1.86h0ZM25,11.32c-.71,0-1.3-.58-1.3-1.3s.58-1.3,1.3-1.3,1.3.58,1.3,1.3-.58,1.3-1.3,1.3h0Z"/></g></svg>