<?xml version="1.0" encoding="UTF-8"?><svg id="Layer_2" xmlns="http://www.w3.org/2000/svg" width="76" height="73" viewBox="0 0 76 73"><defs><style>.cls-1{fill:#fff;}.cls-1,.cls-2{stroke-width:0px;}.cls-2{fill:#ed1e79;opacity:0;}</style></defs><g id="Multimidia"><path class="cls-1" d="M64.85,10.33H11.15c-3.45,0-6.26,2.81-6.26,6.26v37.14c0,3.45,2.81,6.26,6.26,6.26h4.29v.85c0,1.04.99,1.82,2.31,1.82h40.5c1.32,0,2.31-.78,2.31-1.82v-.85h4.29c3.45,0,6.26-2.81,6.26-6.26V16.59c0-3.45-2.81-6.26-6.26-6.26ZM66.55,53.74c0,.93-.76,1.7-1.7,1.7H11.15c-.94,0-1.7-.76-1.7-1.7V16.59c0-.94.76-1.7,1.7-1.7h53.71c.93,0,1.7.76,1.7,1.7v37.14Z"/><path class="cls-1" d="M44.59,33.25l-10.96-6.33c-.69-.4-1.52-.4-2.21,0-.69.4-1.11,1.12-1.11,1.92v12.66c0,.8.41,1.52,1.11,1.92.35.2.73.3,1.1.3s.76-.1,1.11-.3l10.96-6.33c.69-.4,1.1-1.12,1.1-1.92s-.41-1.52-1.1-1.92Z"/><rect class="cls-2" width="76" height="73"/></g></svg>