<?xml version="1.0" encoding="UTF-8"?>
<svg id="uuid-b73784b7-2fab-47c8-899a-71d66751d52d" data-name="Layer 2" xmlns="http://www.w3.org/2000/svg" viewBox="0 0 19 19">
  <defs>
    <style>
      .uuid-a908b714-561b-4a80-a211-5deba699f7d6 {
        fill: #fff;
        stroke-width: 0px;
      }
    </style>
  </defs>
  <g id="uuid-4ebcec5f-9540-4124-a609-be2ae6640214" data-name="Layer 1">
    <g>
      <path class="uuid-a908b714-561b-4a80-a211-5deba699f7d6" d="M9.5,1.71c2.53,0,2.84,0,3.84.06.93.04,1.43.2,1.76.33.44.17.76.38,1.09.71s.54.65.71,1.09c.13.33.28.84.33,1.76.04,1,.06,1.3.06,3.84s0,2.84-.06,3.84c-.04.93-.2,1.43-.33,1.76-.17.44-.38.76-.71,1.09-.33.33-.65.54-1.09.71-.33.13-.84.28-1.76.33-1,.04-1.3.06-3.84.06s-2.84,0-3.84-.06c-.93-.04-1.43-.2-1.76-.33-.44-.17-.76-.38-1.09-.71-.33-.33-.54-.65-.71-1.09-.13-.33-.28-.84-.33-1.76-.04-1-.06-1.3-.06-3.84s0-2.84.06-3.84c.04-.93.2-1.43.33-1.76.17-.44.38-.76.71-1.09s.65-.54,1.09-.71c.33-.13.84-.28,1.76-.33,1-.05,1.3-.06,3.84-.06ZM9.5,0c-2.58,0-2.9.01-3.92.06-1.01.05-1.7.21-2.31.44-.62.24-1.15.56-1.68,1.09-.53.53-.85,1.06-1.1,1.68-.23.6-.4,1.29-.44,2.31-.05,1.01-.06,1.34-.06,3.92s.01,2.9.06,3.92c.05,1.01.21,1.7.44,2.31.24.62.57,1.15,1.1,1.68.53.53,1.06.85,1.68,1.1.6.23,1.29.4,2.31.44,1.01.05,1.34.06,3.92.06s2.9-.01,3.92-.06c1.01-.05,1.7-.21,2.31-.44.62-.24,1.15-.57,1.68-1.1.53-.53.85-1.06,1.1-1.68.23-.6.4-1.29.44-2.31.05-1.01.06-1.34.06-3.92s-.01-2.9-.06-3.92c-.05-1.01-.21-1.7-.44-2.31-.24-.62-.57-1.15-1.1-1.68-.53-.53-1.06-.85-1.68-1.1-.6-.23-1.29-.4-2.31-.44-1.01-.04-1.33-.06-3.91-.06Z"/>
      <path class="uuid-a908b714-561b-4a80-a211-5deba699f7d6" d="M9.5,4.62c-2.69,0-4.88,2.18-4.88,4.88s2.18,4.88,4.88,4.88,4.88-2.18,4.88-4.88-2.18-4.88-4.88-4.88ZM9.5,12.66c-1.75,0-3.17-1.42-3.17-3.17s1.42-3.17,3.17-3.17,3.17,1.42,3.17,3.17-1.42,3.17-3.17,3.17Z"/>
      <path class="uuid-a908b714-561b-4a80-a211-5deba699f7d6" d="M14.57,5.57c.63,0,1.14-.51,1.14-1.14s-.51-1.14-1.14-1.14-1.14.51-1.14,1.14.51,1.14,1.14,1.14Z"/>
    </g>
  </g>
</svg>