<?xml version="1.0" encoding="UTF-8"?><svg id="Layer_2" xmlns="http://www.w3.org/2000/svg" width="61.73" height="48.79" viewBox="0 0 61.73 48.79"><defs><style>.cls-1{fill:#fff;stroke-width:0px;}</style></defs><g id="Multimidia"><path class="cls-1" d="M55.89,0H5.84C2.62,0,0,2.62,0,5.84v34.62c0,3.22,2.62,5.84,5.84,5.84h4v.8c0,.97.93,1.69,2.16,1.69h37.74c1.23,0,2.16-.73,2.16-1.69v-.8h4c3.22,0,5.84-2.62,5.84-5.84V5.84c0-3.22-2.62-5.84-5.84-5.84ZM57.47,40.46c0,.87-.71,1.58-1.58,1.58H5.84c-.87,0-1.58-.71-1.58-1.58V5.84c0-.87.71-1.58,1.58-1.58h50.06c.87,0,1.58.71,1.58,1.58v34.62Z"/><path class="cls-1" d="M37.01,21.36l-10.22-5.9c-.65-.37-1.42-.37-2.06,0-.65.37-1.03,1.04-1.03,1.79v11.8c0,.75.39,1.42,1.03,1.79.32.19.68.28,1.03.28s.71-.09,1.03-.28l10.22-5.9c.65-.37,1.03-1.04,1.03-1.79s-.38-1.41-1.03-1.79Z"/></g></svg>