<?xml version="1.0" encoding="UTF-8"?><svg id="Layer_2" xmlns="http://www.w3.org/2000/svg" width="50" height="49.66" viewBox="0 0 50 49.66"><defs><style>.cls-1{fill:#be167b;}.cls-1,.cls-2{stroke-width:0px;}.cls-2{fill:#fff;}</style></defs><g id="Outros_Serviços"><path class="cls-1" d="M25.01,45.27c-4.62,0-9.24,0-13.86,0q-.7,0-.7.67c0,.67,0,1.34,0,2.01-.01.99-.71,1.69-1.69,1.7-1.52,0-3.04,0-4.57,0-1.06,0-1.75-.7-1.75-1.77,0-1.76-.02-3.52,0-5.28,0-.5-.14-.85-.49-1.21-1.41-1.46-2.11-3.22-1.94-5.25.1-1.18.37-2.34.6-3.5.39-2,.81-3.99,1.34-5.96.07-.24.02-.42-.13-.61-.42-.51-.8-1.04-1.04-1.66-.45-1.17,0-1.96,1.24-2.21.58-.12,1.17-.06,1.75-.06.34,0,.49-.11.59-.44.74-2.4,1.53-4.78,2.51-7.1.47-1.12,1.02-2.2,1.64-3.24.72-1.19,1.72-1.68,3.09-1.81,3.91-.37,7.81-.63,11.74-.68,2.85-.03,5.69.04,8.53.17,2.34.11,4.67.37,7,.57,1.27.11,2,.82,2.61,1.78,1.02,1.59,1.73,3.34,2.38,5.1.63,1.7,1.23,3.41,1.72,5.16.11.39.3.5.68.49.6-.02,1.2-.06,1.79.07,1.12.26,1.55,1.02,1.15,2.1-.21.57-.49,1.1-.91,1.54-.32.34-.34.66-.23,1.1.76,2.9,1.38,5.84,1.82,8.81.31,2.09-.3,3.93-1.73,5.47-.46.49-.66.95-.64,1.61.05,1.66.02,3.32.01,4.98,0,1.15-.68,1.83-1.81,1.83-1.47,0-2.93,0-4.4,0-1.12,0-1.79-.67-1.8-1.81,0-.7-.02-1.4,0-2.09.01-.37-.11-.49-.48-.49-1.13.02-2.26,0-3.39,0-3.56,0-7.12,0-10.68,0ZM25.04,22.07c5.56,0,11.11,0,16.67,0,.51,0,.51,0,.35-.49-.5-1.49-1-2.99-1.57-4.46-.51-1.3-1-2.61-1.7-3.82-.13-.23-.29-.35-.56-.37-.81-.07-1.61-.16-2.41-.24-3-.32-6.01-.42-9.02-.48-3.34-.06-6.67.04-10,.25-1.64.11-3.28.25-4.92.45-.34.04-.55.19-.71.49-.54.98-.97,2.01-1.38,3.05-.68,1.71-1.28,3.46-1.87,5.2-.1.31-.02.42.29.41.13,0,.25,0,.38,0,5.49,0,10.97,0,16.46,0ZM25,34.95c2.61,0,5.22,0,7.83,0,.28,0,.55-.03.78-.23.4-.37.55-.86.38-1.32-.17-.46-.62-.75-1.19-.75-5.19,0-10.38,0-15.58,0-.07,0-.14,0-.21,0-.82.07-1.31.94-.94,1.67.24.48.66.64,1.18.64,2.58,0,5.16,0,7.75,0ZM39.35,33.98c0,1.49,1.25,2.74,2.72,2.72,1.43-.02,2.65-1.26,2.66-2.69,0-1.46-1.23-2.69-2.69-2.69-1.43,0-2.68,1.25-2.68,2.66ZM7.97,31.31c-1.44-.01-2.71,1.26-2.7,2.7,0,1.42,1.25,2.71,2.63,2.68,1.69-.03,2.67-1.21,2.74-2.67.07-1.45-1.21-2.7-2.67-2.71Z"/><path class="cls-2" d="M29.88,20.16c-1.38,0-2.68-.54-3.66-1.51-1.06-1.06-1.6-2.5-1.51-3.96l-1.61-1.61,1.11-1.11-.23-.62,2.65-2.65.71.31.89-.61,1.39,1.39c.1,0,.19,0,.29,0,1.05,0,2.06.31,2.91.89,1.57,1.08,2.43,2.92,2.24,4.81-.12,1.2-1.12,2.11-2.33,2.11h0c-.07,0-.15,0-.22-.01.03.34,0,.68-.12,1.01-.3.85-1.04,1.44-1.93,1.54-.19.02-.38.03-.57.03Z"/><path class="cls-2" d="M20.39,10.37c-.09,0-.28,0-.28,0-1.39,0-2.69-.54-3.67-1.52-1.11-1.11-1.65-2.65-1.48-4.23.13-1.18,1.12-2.07,2.32-2.07.08,0,.15,0,.22.01-.03-.33,0-.67.13-1,.3-.85,1.08-1.46,1.97-1.55.18-.02.35-.03.53-.03,1.71,0,3.31.85,4.28,2.27.64.94.95,2.07.88,3.2l1.4,1.4-.61.89.31.7-2.64,2.64-.62-.23-1.12,1.12-1.62-1.62Z"/><path class="cls-2" d="M19.85,19.78c-.98,0-1.91-.38-2.6-1.08l-.87-.87c-1.44-1.44-1.44-3.77,0-5.2l4.69-4.69c.38-.38.85-.62,1.36-.71.08-.51.32-.98.69-1.35l.76-.76c.47-.47,1.08-.72,1.74-.72.39,0,.76.09,1.09.25l1.7-1.7c.12-.54.43-1.02.89-1.35l1.14-.81c.38-.27.83-.42,1.31-.42.6,0,1.17.23,1.59.66l.7.7c.78.78.88,2,.24,2.9l-.81,1.14c-.33.46-.81.77-1.35.89l-1.7,1.7c.45.92.3,2.07-.46,2.83l-.76.76c-.37.37-.84.61-1.35.69-.09.51-.33.99-.71,1.36l-4.69,4.69c-.7.69-1.62,1.08-2.6,1.08Z"/><path class="cls-1" d="M31.68,12.33c-.81-.55-1.84-.68-2.75-.39l-.94-.94c-.16.11-.34.17-.54.17-.13,0-.26-.03-.38-.08l-.77.77c.14.36.06.79-.23,1.08l-.14.14.93.93c-.35,1.1-.09,2.35.78,3.23.71.71,1.67,1.01,2.59.91.27-.03.38-.37.19-.57l-1.18-1.18c-.21-.21-.21-.55,0-.76l1.31-1.31c.21-.21.55-.21.76,0l1.18,1.18c.2.2.54.07.57-.21.11-1.1-.34-2.25-1.38-2.96Z"/><path class="cls-1" d="M21.07,8.23l.93.93.14-.14c.19-.19.45-.3.72-.3.13,0,.25.02.36.06l.77-.77c-.13-.29-.09-.64.1-.91l-.95-.95c.29-.92.16-1.95-.39-2.75-.71-1.04-1.86-1.49-2.96-1.38-.28.03-.41.37-.21.57l1.18,1.18c.21.21.21.55,0,.76l-1.31,1.31c-.21.21-.55.21-.76,0l-1.18-1.18c-.19-.19-.54-.09-.57.19-.1.93.2,1.88.91,2.59.87.87,2.13,1.13,3.23.78Z"/><path class="cls-1" d="M19.85,18.16c-.55,0-1.07-.21-1.45-.6l-.87-.87c-.8-.8-.8-2.11,0-2.91l4.69-4.69c.17-.17.41-.27.65-.27.14,0,.27.03.38.08l.87-.87c-.07-.12-.1-.26-.1-.4,0-.22.09-.44.25-.59l.76-.76c.16-.16.37-.25.59-.25s.43.09.59.25l.59.59,3.22-3.22c-.03-.08-.04-.17-.03-.26.01-.18.11-.35.26-.46l1.14-.81c.11-.08.23-.12.36-.12.17,0,.32.07.44.18l.7.7c.22.22.24.56.07.81l-.81,1.14c-.12.16-.31.26-.51.26-.07,0-.14-.01-.21-.04l-3.22,3.22.59.59c.16.16.25.37.25.59s-.09.44-.25.59l-.76.76c-.16.16-.37.25-.59.25-.14,0-.28-.04-.4-.1l-.88.88c.06.12.09.25.09.38,0,.25-.1.48-.27.65l-4.69,4.69c-.39.39-.9.6-1.45.6Z"/><path class="cls-2" d="M31.75,2.38c.06,0,.13.02.18.07l.7.7c.09.09.1.22.03.32l-.81,1.14c-.05.07-.13.11-.2.11-.06,0-.13-.02-.18-.07l-.07-.07-3.7,3.7.86.86c.18.18.18.47,0,.66l-.76.76c-.09.09-.21.14-.33.14s-.24-.05-.33-.14l-.1-.1-1.34,1.34.04.04c.21.21.21.56,0,.77l-4.69,4.69c-.33.33-.76.49-1.19.49s-.86-.16-1.19-.49l-.87-.87c-.66-.66-.66-1.72,0-2.38l4.69-4.69c.11-.11.25-.16.38-.16s.28.05.38.16l.04.04,1.34-1.34-.1-.1c-.18-.18-.18-.47,0-.66l.76-.76c.09-.09.21-.14.33-.14s.24.05.33.14l.86.86,3.7-3.7-.07-.07c-.11-.11-.09-.29.03-.38l1.14-.81s.09-.05.15-.05M31.75,1.63h0c-.21,0-.41.06-.58.19l-1.14.81c-.24.17-.39.44-.42.73,0,.06,0,.11,0,.17l-2.81,2.81-.33-.33c-.23-.23-.53-.36-.86-.36-.32,0-.63.13-.86.36l-.76.76c-.32.32-.42.76-.32,1.17l-.54.54c-.09-.02-.19-.03-.28-.03-.35,0-.67.13-.92.38l-4.69,4.69c-.95.95-.95,2.49,0,3.44l.87.87c.46.46,1.07.71,1.72.71s1.26-.25,1.72-.71l4.69-4.69c.32-.32.44-.78.35-1.2l.54-.54c.1.03.2.04.31.04.32,0,.63-.13.86-.36l.76-.76c.47-.47.47-1.24,0-1.72l-.33-.33,2.81-2.81s.06,0,.08,0c.32,0,.63-.16.82-.42l.81-1.14c.29-.4.24-.94-.11-1.29l-.7-.7c-.19-.19-.44-.29-.71-.29h0Z"/></g></svg>