<?xml version="1.0" encoding="UTF-8"?><svg id="Layer_2" xmlns="http://www.w3.org/2000/svg" width="76" height="73" viewBox="0 0 76 73"><defs><style>.cls-1{fill:#fff;}.cls-1,.cls-2{stroke-width:0px;}.cls-2{fill:#ed1e79;opacity:0;}</style></defs><g id="Sensor_Ré"><rect class="cls-2" width="76" height="73"/><rect class="cls-1" x="3.51" y="51.52" width="7.89" height="4.12"/><path class="cls-1" d="M39.23,55.65h-1.63v-4.12h1.63c2.6,0,4.89-1.75,5.56-4.26l3.43-12.73c.55-2.03-.05-4.19-1.56-5.65L27.51,10.43c-1.08-1.04-2.5-1.61-4-1.61H3.51v-4.12h20c2.57,0,5.01.98,6.86,2.77l19.15,18.46c2.59,2.5,3.62,6.21,2.68,9.69l-3.43,12.73c-1.16,4.31-5.09,7.32-9.55,7.32Z"/><path class="cls-1" d="M24.41,68.31c-7.85,0-14.24-6.39-14.24-14.23s6.39-14.23,14.24-14.23,14.23,6.39,14.23,14.23-6.39,14.23-14.23,14.23ZM24.41,43.97c-5.58,0-10.11,4.54-10.11,10.11s4.54,10.11,10.11,10.11,10.11-4.54,10.11-10.11-4.54-10.11-10.11-10.11Z"/><path class="cls-1" d="M53.88,56.47c-.47,0-.94-.18-1.29-.55-.68-.71-.66-1.84.05-2.53,2-1.92,2.96-4.59,2.64-7.33-.07-.57-.19-1.13-.37-1.68-.3-.94.21-1.95,1.15-2.25.94-.3,1.95.21,2.25,1.15.25.77.42,1.57.52,2.37.45,3.86-.91,7.62-3.72,10.32-.35.33-.79.5-1.24.5Z"/><path class="cls-1" d="M60.34,59.91c-.39,0-.79-.13-1.12-.39-.77-.62-.89-1.74-.27-2.51,2.68-3.33,3.88-7.5,3.39-11.75-.07-.57-.15-1.08-.26-1.56-.22-.96.39-1.92,1.35-2.14.96-.22,1.92.39,2.14,1.35.14.61.24,1.24.32,1.94.6,5.21-.87,10.32-4.15,14.4-.35.44-.87.67-1.39.67Z"/><path class="cls-1" d="M66.12,62.99c-.36,0-.73-.11-1.05-.34-.8-.58-.98-1.7-.4-2.5,3.28-4.52,4.74-10.08,4.09-15.65-.05-.46-.12-.92-.21-1.37-.18-.97.45-1.91,1.42-2.09.97-.19,1.91.45,2.09,1.42.1.54.18,1.07.25,1.62.75,6.46-.94,12.91-4.75,18.16-.35.48-.89.74-1.45.74Z"/><path class="cls-1" d="M32.2,32.31H3.51v-4.12h28.69c.33,0,.48-.2.54-.36.07-.17.1-.41-.13-.64l-11.17-11.17c-.11-.11-.26-.17-.42-.17H3.51v-4.12h17.52c1.26,0,2.44.49,3.33,1.38l11.17,11.17c1.35,1.35,1.75,3.37,1.02,5.14-.73,1.77-2.44,2.91-4.35,2.91Z"/><path class="cls-1" d="M43.06,50.45l-5.43-8.93c-.97-1.6-1-3.52-.09-5.15.92-1.63,2.58-2.6,4.45-2.6h8.02v4.12h-8.02c-.52,0-.77.35-.85.5-.08.15-.25.55.02.99l5.43,8.93-3.52,2.14Z"/></g></svg>