<?xml version="1.0" encoding="UTF-8"?>
<svg id="uuid-3ba9d935-fdc9-4402-a212-dcba73bcb623" data-name="Layer 2" xmlns="http://www.w3.org/2000/svg" xmlns:xlink="http://www.w3.org/1999/xlink" viewBox="0 0 40 40">
  <defs>
    <style>
      .uuid-a0352ffa-e360-4df4-afea-19b802aa25f9 {
        fill: #fff;
      }

      .uuid-a0352ffa-e360-4df4-afea-19b802aa25f9, .uuid-d4aa09a2-951b-49ab-918b-93cf6663beb9 {
        stroke-width: 0px;
      }

      .uuid-d4aa09a2-951b-49ab-918b-93cf6663beb9 {
        fill: url(#uuid-02255080-2399-4f1f-bac9-8e9d83c225fc);
      }
    </style>
    <linearGradient id="uuid-02255080-2399-4f1f-bac9-8e9d83c225fc" x1="-213.18" y1="868.33" x2="-184.9" y2="896.62" gradientTransform="translate(219.04 902.47) scale(1 -1)" gradientUnits="userSpaceOnUse">
      <stop offset="0" stop-color="#ffd521"/>
      <stop offset=".06" stop-color="#ffd020"/>
      <stop offset=".12" stop-color="#fec01e"/>
      <stop offset=".2" stop-color="#fca71b"/>
      <stop offset=".28" stop-color="#fa8316"/>
      <stop offset=".37" stop-color="#f85510"/>
      <stop offset=".46" stop-color="#f51e09"/>
      <stop offset=".5" stop-color="#f30005"/>
      <stop offset=".5" stop-color="#f20007"/>
      <stop offset=".6" stop-color="#e1003b"/>
      <stop offset=".69" stop-color="#d30067"/>
      <stop offset=".78" stop-color="#c70088"/>
      <stop offset=".86" stop-color="#bf00a0"/>
      <stop offset=".94" stop-color="#bb00af"/>
      <stop offset="1" stop-color="#b900b4"/>
    </linearGradient>
  </defs>
  <g id="uuid-ff540fdc-4875-4423-a4c0-386867cd18df" data-name="Layer 1">
    <g>
      <rect class="uuid-d4aa09a2-951b-49ab-918b-93cf6663beb9" width="40" height="40" rx="8" ry="8"/>
      <g>
        <path class="uuid-a0352ffa-e360-4df4-afea-19b802aa25f9" d="M20,8.81c3.64,0,4.08.01,5.52.08,1.33.06,2.06.28,2.54.47.64.25,1.09.54,1.57,1.02s.77.93,1.02,1.57c.19.48.41,1.2.47,2.54.06,1.44.08,1.87.08,5.52s-.01,4.08-.08,5.52c-.06,1.33-.28,2.06-.47,2.54-.25.64-.54,1.09-1.02,1.57-.48.48-.93.77-1.57,1.02-.48.19-1.2.41-2.54.47-1.44.06-1.87.08-5.52.08s-4.08-.01-5.52-.08c-1.33-.06-2.06-.28-2.54-.47-.64-.25-1.09-.54-1.57-1.02-.48-.48-.77-.93-1.02-1.57-.19-.48-.41-1.2-.47-2.54-.06-1.44-.08-1.87-.08-5.52s.01-4.08.08-5.52c.06-1.33.28-2.06.47-2.54.25-.64.54-1.09,1.02-1.57s.93-.77,1.57-1.02c.48-.19,1.2-.41,2.54-.47,1.44-.07,1.87-.08,5.52-.08ZM20,6.35c-3.71,0-4.17.02-5.63.08-1.45.07-2.44.3-3.32.64-.9.34-1.66.81-2.42,1.57-.76.76-1.22,1.52-1.58,2.42-.34.87-.57,1.86-.64,3.32-.07,1.46-.08,1.92-.08,5.63s.02,4.17.08,5.63c.07,1.45.3,2.44.64,3.32.35.89.82,1.66,1.58,2.41.76.76,1.52,1.22,2.42,1.58.87.34,1.86.57,3.32.64,1.46.07,1.92.08,5.63.08s4.17-.02,5.63-.08c1.45-.07,2.44-.3,3.32-.64.89-.35,1.66-.82,2.41-1.58.76-.76,1.22-1.52,1.58-2.42.34-.87.57-1.86.64-3.32.07-1.46.08-1.92.08-5.63s-.02-4.17-.08-5.63c-.07-1.45-.3-2.44-.64-3.32-.35-.89-.82-1.66-1.58-2.41-.76-.76-1.52-1.22-2.42-1.58-.87-.34-1.86-.57-3.32-.64-1.45-.06-1.92-.08-5.62-.08Z"/>
        <path class="uuid-a0352ffa-e360-4df4-afea-19b802aa25f9" d="M20,12.99c-3.87,0-7.01,3.14-7.01,7.01s3.14,7.01,7.01,7.01,7.01-3.14,7.01-7.01-3.14-7.01-7.01-7.01ZM20,24.55c-2.51,0-4.55-2.04-4.55-4.55s2.04-4.55,4.55-4.55,4.55,2.04,4.55,4.55-2.04,4.55-4.55,4.55Z"/>
        <path class="uuid-a0352ffa-e360-4df4-afea-19b802aa25f9" d="M27.29,14.35c.91,0,1.64-.73,1.64-1.64s-.73-1.64-1.64-1.64-1.64.73-1.64,1.64.73,1.64,1.64,1.64Z"/>
      </g>
    </g>
  </g>
</svg>