<?xml version="1.0" encoding="UTF-8"?><svg id="Layer_2" xmlns="http://www.w3.org/2000/svg" width="73.69" height="72" viewBox="0 0 73.69 72"><defs><style>.cls-1{fill:#fff;stroke-width:0px;}</style></defs><g id="Pelicula_Edificio"><path class="cls-1" d="M33.04,21.05c-.9-.64-2.11-.64-3.01,0L1.08,41.75c-1.16.83-1.43,2.44-.6,3.6.83,1.16,2.45,1.43,3.61.6l4.77-3.41v26.86c0,1.43,1.16,2.58,2.58,2.58h40.2c1.43,0,2.58-1.16,2.58-2.58v-26.86l4.77,3.41c.45.33.98.48,1.5.48.81,0,1.6-.38,2.1-1.08.83-1.16.56-2.77-.6-3.6l-28.95-20.7ZM49.05,66.83H14.02v-27.98l17.51-12.52,17.51,12.52v27.98Z"/><rect class="cls-1" x="21.57" y="42.92" width="8.99" height="8.99" rx=".94" ry=".94"/><rect class="cls-1" x="32.52" y="42.92" width="8.99" height="8.99" rx=".94" ry=".94"/><rect class="cls-1" x="21.57" y="53.93" width="8.99" height="8.99" rx=".94" ry=".94"/><rect class="cls-1" x="32.52" y="53.93" width="8.99" height="8.99" rx=".94" ry=".94"/><path class="cls-1" d="M59.72,29.21v-3.31c0-.78-.63-1.4-1.4-1.4s-1.4.63-1.4,1.4v3.31c0,.78.63,1.4,1.4,1.4s1.4-.63,1.4-1.4Z"/><path class="cls-1" d="M47.51,24.1c-.55.55-.55,1.44,0,1.99.27.27.63.41.99.41s.72-.14.99-.41l2.34-2.34c.55-.55.55-1.44,0-1.99-.55-.55-1.44-.55-1.99,0l-2.34,2.34Z"/><path class="cls-1" d="M44.48,16.65h3.31c.78,0,1.4-.63,1.4-1.4s-.63-1.4-1.4-1.4h-3.31c-.78,0-1.4.63-1.4,1.4s.63,1.4,1.4,1.4Z"/><path class="cls-1" d="M49.94,8.77c.27.27.63.41.99.41s.72-.14.99-.41c.55-.55.55-1.44,0-1.99l-2.34-2.34c-.55-.55-1.44-.55-1.99,0s-.55,1.44,0,1.99l2.34,2.34Z"/><path class="cls-1" d="M58.44,6.12c.78,0,1.4-.63,1.4-1.4V1.4c0-.78-.63-1.4-1.4-1.4s-1.4.63-1.4,1.4v3.31c0,.78.63,1.4,1.4,1.4Z"/><path class="cls-1" d="M65.92,9.27c.36,0,.72-.14.99-.41l2.34-2.34c.55-.55.55-1.44,0-1.99-.55-.55-1.44-.55-1.99,0l-2.34,2.34c-.55.55-.55,1.44,0,1.99.27.27.63.41.99.41Z"/><path class="cls-1" d="M72.28,13.97h-3.31c-.78,0-1.4.63-1.4,1.4s.63,1.4,1.4,1.4h3.31c.78,0,1.4-.63,1.4-1.4s-.63-1.4-1.4-1.4Z"/><path class="cls-1" d="M66.82,21.85c-.55-.55-1.44-.55-1.99,0-.55.55-.55,1.44,0,1.99l2.34,2.34c.27.27.63.41.99.41s.72-.14.99-.41c.55-.55.55-1.44,0-1.99l-2.34-2.34Z"/><circle class="cls-1" cx="58.38" cy="15.31" r="6.81"/></g></svg>