<?xml version="1.0" encoding="UTF-8"?>
<svg id="uuid-f3dcaf95-8ebd-4797-a7ec-537f1c139df9" data-name="Layer 2" xmlns="http://www.w3.org/2000/svg" xmlns:xlink="http://www.w3.org/1999/xlink" viewBox="0 0 120 120">
  <defs>
    <style>
      .uuid-1cd247c5-301b-4b52-b1dd-c9deff165890 {
        filter: url(#uuid-462eb1f8-901c-4ec6-bde7-88500b0aeb7a);
      }

      .uuid-a0ce1117-f4fe-47be-894e-3f1128686e76 {
        fill: #fff;
        stroke-width: 0px;
      }
    </style>
    <filter id="uuid-462eb1f8-901c-4ec6-bde7-88500b0aeb7a" data-name="drop-shadow-1" filterUnits="userSpaceOnUse">
      <feOffset dx="1" dy="1"/>
      <feGaussianBlur result="uuid-d43f2cca-8c4f-4ca2-9e95-6f0e49956701" stdDeviation="2"/>
      <feFlood flood-color="#000" flood-opacity=".83"/>
      <feComposite in2="uuid-d43f2cca-8c4f-4ca2-9e95-6f0e49956701" operator="in"/>
      <feComposite in="SourceGraphic"/>
    </filter>
  </defs>
  <g id="uuid-00a5b819-15ea-48d0-9f95-14bd78b12e0f" data-name="Layer 1">
    <g class="uuid-1cd247c5-301b-4b52-b1dd-c9deff165890">
      <path class="uuid-a0ce1117-f4fe-47be-894e-3f1128686e76" d="M49.33,103.78l.47,1.21h2.43l-3.04-6.96h-2.31l-2.64,6.05-2.24-2.98,2.78-3.07h-2.56l-2.29,2.52v-2.52h-2.31v6.96h2.31v-1.72l.52-.58,1.74,2.3h4.02l.47-1.21h2.65ZM47.33,102.09l.67-1.75.67,1.75h-1.35Z"/>
      <path class="uuid-a0ce1117-f4fe-47be-894e-3f1128686e76" d="M57.78,104.58c.59-.28,1.05-.68,1.38-1.2.33-.52.5-1.14.5-1.86s-.17-1.33-.5-1.85c-.33-.52-.79-.92-1.38-1.2-.59-.28-1.27-.42-2.05-.42h-3.43v6.96h3.43c.78,0,1.46-.14,2.05-.42ZM54.65,103.17v-3.3h.98c.33,0,.62.06.87.19.25.13.44.31.58.56.14.25.21.54.21.89s-.07.66-.21.91c-.14.25-.33.44-.58.56-.25.13-.54.19-.87.19h-.98Z"/>
      <path class="uuid-a0ce1117-f4fe-47be-894e-3f1128686e76" d="M62.3,104.89c.48.18,1.01.27,1.58.27s1.08-.09,1.56-.27c.48-.18.89-.43,1.24-.76.35-.33.62-.71.82-1.16.2-.44.29-.93.29-1.45s-.1-1.02-.29-1.46c-.2-.44-.47-.83-.82-1.15-.35-.33-.77-.58-1.24-.76-.48-.18-1-.27-1.57-.27s-1.09.09-1.57.27c-.48.18-.9.43-1.25.76s-.62.71-.82,1.15c-.2.44-.29.93-.29,1.46s.1,1.01.29,1.45c.2.44.47.83.82,1.16s.77.58,1.25.76ZM62.42,100.79c.08-.22.19-.4.33-.55s.31-.26.5-.34c.19-.08.39-.12.61-.12s.42.04.61.12c.19.08.35.19.5.34s.25.33.33.55c.08.22.12.46.12.73s-.04.52-.12.73c-.08.22-.19.4-.33.55s-.31.26-.5.34c-.19.08-.39.12-.61.12s-.42-.04-.61-.12c-.19-.08-.35-.19-.5-.34s-.25-.33-.33-.55c-.08-.22-.12-.46-.12-.73s.04-.52.12-.73Z"/>
      <path class="uuid-a0ce1117-f4fe-47be-894e-3f1128686e76" d="M73.42,101.3c-.23-.15-.48-.27-.75-.37-.27-.09-.55-.17-.82-.22-.28-.05-.53-.1-.76-.15-.23-.05-.41-.1-.55-.17-.14-.07-.21-.16-.21-.28,0-.08.03-.15.08-.22.06-.07.15-.12.28-.16s.31-.06.54-.06c.3,0,.62.04.94.13.32.09.65.22,1,.39l.71-1.7c-.36-.21-.78-.36-1.23-.46-.46-.1-.92-.15-1.39-.15-.72,0-1.31.11-1.79.32-.48.21-.84.5-1.08.85s-.36.75-.36,1.18c0,.37.07.68.21.93s.32.45.55.6.48.28.76.37c.28.09.55.17.82.22.27.06.52.11.75.16.23.05.41.11.55.18.14.07.21.17.21.3,0,.08-.03.15-.09.2-.06.06-.15.1-.28.13-.13.03-.31.04-.53.04-.38,0-.78-.06-1.19-.17-.41-.12-.78-.27-1.11-.46l-.76,1.71c.35.21.8.38,1.34.52.54.13,1.11.2,1.69.2.72,0,1.32-.11,1.8-.32.48-.22.84-.5,1.08-.85s.36-.74.36-1.17c0-.36-.07-.67-.21-.91-.14-.25-.32-.44-.55-.6Z"/>
      <polygon class="uuid-a0ce1117-f4fe-47be-894e-3f1128686e76" points="79.1 100.5 76.93 100.5 76.93 98.04 74.58 98.04 74.58 105 76.93 105 76.93 102.43 79.1 102.43 79.1 105 81.44 105 81.44 98.04 79.1 98.04 79.1 100.5"/>
      <path class="uuid-a0ce1117-f4fe-47be-894e-3f1128686e76" d="M56.43,111.98l-1.48-1.32c-.21.26-.43.46-.68.6-.25.14-.53.21-.84.21-.25,0-.47-.04-.67-.12-.2-.08-.37-.2-.51-.35-.14-.15-.25-.34-.33-.55-.08-.22-.12-.46-.12-.72s.04-.51.12-.72c.08-.22.19-.4.33-.55s.31-.27.51-.35c.2-.08.42-.12.67-.12.31,0,.59.07.84.21.25.14.48.34.68.6l1.48-1.32c-.34-.45-.78-.8-1.31-1.03-.53-.24-1.13-.36-1.81-.36-.56,0-1.07.09-1.55.26-.47.18-.88.43-1.23.75-.35.32-.62.71-.81,1.15s-.29.93-.29,1.47.1,1.03.29,1.47c.19.44.46.83.81,1.15.35.32.76.58,1.23.75s.99.26,1.55.26c.68,0,1.29-.12,1.81-.36.53-.24.96-.58,1.31-1.03Z"/>
      <path class="uuid-a0ce1117-f4fe-47be-894e-3f1128686e76" d="M59,106.25l-3.04,6.96h2.39l.47-1.21h2.65l.47,1.21h2.43l-3.04-6.96h-2.31ZM59.46,110.31l.67-1.75.67,1.75h-1.35Z"/>
      <path class="uuid-a0ce1117-f4fe-47be-894e-3f1128686e76" d="M70.56,110.26c.26-.39.39-.85.39-1.39s-.13-1-.39-1.4c-.26-.39-.62-.7-1.1-.91-.47-.21-1.04-.32-1.69-.32h-3.35v6.96h2.35v-1.75h.64l1.18,1.75h2.51l-1.46-2.15c.39-.2.7-.46.93-.8ZM68.35,108.28c.16.15.23.34.23.6s-.08.45-.23.6c-.16.15-.4.22-.72.22h-.85v-1.63h.85c.32,0,.56.07.72.22Z"/>
      <path class="uuid-a0ce1117-f4fe-47be-894e-3f1128686e76" d="M102.43,17.57C91.09,6.24,76.03,0,60,0S28.91,6.24,17.57,17.57C6.24,28.91,0,43.97,0,60s6.24,31.09,17.57,42.43c11.33,11.33,26.4,17.57,42.43,17.57s31.09-6.24,42.43-17.57c11.33-11.33,17.57-26.4,17.57-42.43s-6.24-31.09-17.57-42.43ZM102.04,102.04c-11.23,11.23-26.16,17.41-42.04,17.41s-30.81-6.18-42.04-17.41C6.73,90.81.54,75.88.54,60S6.73,29.19,17.96,17.96C29.19,6.73,44.12.54,60,.54s30.81,6.18,42.04,17.41c11.23,11.23,17.41,26.16,17.41,42.04s-6.18,30.81-17.41,42.04Z"/>
      <path class="uuid-a0ce1117-f4fe-47be-894e-3f1128686e76" d="M60,2.58C28.29,2.58,2.58,28.29,2.58,60s25.71,57.42,57.42,57.42,57.42-25.71,57.42-57.42S91.71,2.58,60,2.58ZM99.65,99.65c-5.15,5.15-11.15,9.19-17.82,12.02-6.91,2.92-14.25,4.41-21.82,4.41s-14.91-1.48-21.82-4.41c-6.68-2.82-12.67-6.87-17.82-12.02-5.15-5.15-9.19-11.15-12.02-17.82-2.92-6.91-4.41-14.25-4.41-21.82s1.48-14.91,4.41-21.82c2.82-6.68,6.87-12.67,12.02-17.82,5.15-5.15,11.15-9.19,17.82-12.02,6.91-2.92,14.25-4.41,21.82-4.41s14.91,1.48,21.82,4.41c6.68,2.82,12.67,6.87,17.82,12.02,5.15,5.15,9.19,11.15,12.02,17.82,2.92,6.91,4.41,14.25,4.41,21.82s-1.48,14.91-4.41,21.82c-2.82,6.68-6.87,12.67-12.02,17.82Z"/>
      <path class="uuid-a0ce1117-f4fe-47be-894e-3f1128686e76" d="M83.51,27.88h-12.37l-13.29,16.25V13.82h-22.55l-.04.81c.06,0,5.99.61,8.99,4.45,1.38,1.76,1.94,3.94,1.68,6.49-4.4-2.19-8.11-2.39-10.73-.63-4,2.69-4.6,9.3-1.7,18.61-.67,2.1-2.74,8.57-4.11,13-.51.03-1.03.07-1.55.11-.33.01-.67.05-.98.09l-.51.06-.06.04c-.93.2-1.8.53-2.59,1-2.98,1.75-4.59,5.16-4.52,9.61.06,3.96,1.43,8.43,3.87,12.58,3.92,6.68,9.59,10.83,14.78,10.83,1.64,0,3.17-.41,4.54-1.22,2.21-1.29,3.73-3.49,4.43-6.37l14.84,1.77c3.61,2.91,8.83,6.34,13.42,6.34,1.02,0,1.97-.17,2.83-.5l5.57,6.75h14.94l-35.13-44.18,20.24-25.58ZM96.71,96.83h-12.87l-5.71-6.92-.28.12c-.83.37-1.77.55-2.79.55-4.39,0-9.49-3.39-13-6.23l-.09-.07-15.8-1.89-.08.36c-.6,2.82-2.03,4.97-4.13,6.2-1.25.73-2.64,1.1-4.13,1.1-4.91,0-10.3-4-14.08-10.43-2.37-4.03-3.7-8.36-3.76-12.18-.06-4.14,1.4-7.3,4.12-8.9.74-.43,1.55-.74,2.42-.92l.08-.02.03-.02.33-.04c.3-.04.61-.07.93-.09.62-.05,1.23-.1,1.82-.13l.28-.02.08-.27c1.4-4.52,3.6-11.38,4.24-13.38l.04-.12-.04-.12c-2.83-9-2.35-15.32,1.34-17.81,2.46-1.66,6.08-1.34,10.41.94l.51.27.08-.57c.44-3.03-.16-5.61-1.78-7.68-1.64-2.09-4.01-3.28-5.99-3.94h18.13v31.77l14.48-17.71h10.31l-19.6,24.77,34.48,43.37Z"/>
      <path class="uuid-a0ce1117-f4fe-47be-894e-3f1128686e76" d="M79.49,29.83h-7.44l-16.15,19.75V15.77h-13.01c5.81.35,4.88,11.1,4.88,11.1v28.92c1.19,2.08,2.5,4.19,3.91,6.27.93,1.38,1.88,2.72,2.82,3.98l.04.04.03.05c.44.59.89,1.17,1.33,1.75v-6.69l17.89,21.69h0l5.04,6.12,5.53,6.7h9.99l-33.58-42.23,18.71-23.64Z"/>
      <path class="uuid-a0ce1117-f4fe-47be-894e-3f1128686e76" d="M30.06,74.47c.25.61.85,1.24,2.18,1.63,3.42-.26,7.02-.64,10.8-1.17,2.56-.37,6.1-.94,8.78-1.43-2.08-2.52-4.14-5.26-6.1-8.18-2.11-3.14-3.99-6.26-5.61-9.3-2.22,3.35-4.96,7.71-6.98,11.22-1.06,1.85-2.07,3.67-3.02,5.46-.09.22-.37.97-.05,1.77Z"/>
      <path class="uuid-a0ce1117-f4fe-47be-894e-3f1128686e76" d="M30.63,63.63c2.41-3.58,5.21-7.57,7.67-11.2-1.26-2.65-2.32-5.2-3.14-7.62-1.21,3.79-4.47,13.99-5.1,16.3-.78,2.85.58,2.53.58,2.53Z"/>
      <path class="uuid-a0ce1117-f4fe-47be-894e-3f1128686e76" d="M73.39,83.6c-4.63-.75-12.25-7.37-19.47-17.05,0,0,0,0,0,0-.97-1.3-1.93-2.65-2.87-4.06-1.45-2.15-2.78-4.29-3.98-6.39-6.75-11.8-9.36-22.15-5.79-24.56,1.31-.89,3.31-.59,5.73.66v-3.82c-4.44-2.68-8.26-3.47-10.7-1.82-5.99,4.04-1.49,21.2,10.05,38.34,11.25,16.69,25.03,27.19,31.27,24l.08-.05-2.88-3.49-1.44-1.75Z"/>
      <path class="uuid-a0ce1117-f4fe-47be-894e-3f1128686e76" d="M55.61,77.8l-10.39.48-3.36.16c-.12.82-.33,1.57-.62,2.22-.52,1.18-1.3,2.06-2.34,2.53-3.66,1.65-8.63-2.37-11.67-9.12-3.04-6.75-2.99-13.68.67-15.33.13-.06.27-.11.41-.16-1.3,0-2.52.3-3.61.94-4.94,2.9-4.57,11.67.04,19.53,4.61,7.86,11.72,11.82,16.66,8.92,2.22-1.3,3.5-3.79,3.81-6.84l15.85,1.89c-1.79-1.54-3.61-3.29-5.43-5.23Z"/>
      <path class="uuid-a0ce1117-f4fe-47be-894e-3f1128686e76" d="M79.57,36.01l-.29,1.37c4.61,2.24,8.8,7.44,11.22,13.9,2.09,5.58,2.58,11.4,1.33,15.97l-.63,2.31,1.81-1.58c4.93-4.31,5.94-12.67,2.45-20.34-3.27-7.21-9.66-11.89-15.89-11.64Z"/>
      <path class="uuid-a0ce1117-f4fe-47be-894e-3f1128686e76" d="M83.49,67.95l1.81-1.58c3.56-3.11,4.29-9.13,1.79-14.65-2.35-5.18-6.95-8.54-11.45-8.36l-.29,1.37c3.21,1.57,6.14,5.2,7.84,9.73,1.47,3.91,1.81,7.99.93,11.18l-.63,2.31Z"/>
      <path class="uuid-a0ce1117-f4fe-47be-894e-3f1128686e76" d="M77.35,67.19l1.81-1.58c2.4-2.09,2.9-6.13,1.23-9.82-1.57-3.46-4.66-5.71-7.68-5.58l-.29,1.37c2.03.99,3.89,3.3,4.97,6.19.93,2.49,1.15,5.09.6,7.11l-.63,2.31Z"/>
    </g>
  </g>
</svg>