<?xml version="1.0" encoding="UTF-8"?><svg id="Layer_2" xmlns="http://www.w3.org/2000/svg" width="209.12" height="111" xmlns:xlink="http://www.w3.org/1999/xlink" viewBox="0 0 209.12 111"><defs><style>.cls-1{mask:url(#mask-2);}.cls-2{mask:url(#mask-3);}.cls-3{fill:#4f7bbe;}.cls-3,.cls-4,.cls-5,.cls-6,.cls-7,.cls-8,.cls-9{stroke-width:0px;}.cls-4{fill:#ffcd3a;}.cls-5{fill:#ef3d2f;}.cls-10{mask:url(#mask-4);}.cls-6{fill:#febb12;}.cls-7{fill:#2db14c;}.cls-8{fill:#fff;}.cls-11{mask:url(#mask-1);}.cls-12{mask:url(#mask);}.cls-9{fill:#fbb03c;}</style><mask id="mask" x="67.91" y="96.73" width="15.3" height="14.27" maskUnits="userSpaceOnUse"><g id="mask0_71_2462"><path class="cls-8" d="M76.14,97.47l2.2,4.44,4.87.74-3.52,3.45.83,4.9-4.38-2.31-4.38,2.31.86-4.9-3.55-3.45,4.9-.74,2.17-4.44Z"/></g></mask><mask id="mask-1" x="51.08" y="96.73" width="15.3" height="14.27" maskUnits="userSpaceOnUse"><g id="mask1_71_2462"><path class="cls-8" d="M59.31,97.47l2.17,4.44,4.9.74-3.55,3.45.86,4.9-4.38-2.31-4.38,2.31.83-4.9-3.52-3.45,4.87-.74,2.2-4.44Z"/></g></mask><mask id="mask-2" x="34.25" y="96.73" width="15.3" height="14.27" maskUnits="userSpaceOnUse"><g id="mask2_71_2462"><path class="cls-8" d="M42.45,97.47l2.2,4.44,4.9.74-3.55,3.45.83,4.9-4.38-2.31-4.35,2.31.83-4.9-3.55-3.45,4.9-.74,2.17-4.44Z"/></g></mask><mask id="mask-3" x="17.38" y="96.73" width="15.3" height="14.27" maskUnits="userSpaceOnUse"><g id="mask3_71_2462"><path class="cls-8" d="M25.62,97.47l2.17,4.44,4.9.74-3.52,3.45.83,4.9-4.38-2.31-4.38,2.31.83-4.9-3.52-3.45,4.9-.74,2.17-4.44Z"/></g></mask><mask id="mask-4" x=".55" y="96.73" width="15.3" height="14.27" maskUnits="userSpaceOnUse"><g id="mask4_71_2462"><path class="cls-8" d="M8.78,97.47l2.17,4.44,4.9.74-3.55,3.45.83,4.9-4.35-2.31-4.38,2.31.83-4.9-3.52-3.45,4.87-.74,2.2-4.44Z"/></g></mask></defs><g id="Layer_1-2"><path class="cls-9" d="M206.64,83.03c-1.18-1.51-2.74-2.74-4.67-3.69,1.27-.79,2.34-1.72,3.2-2.8,1.52-1.92,2.28-4.2,2.28-6.83,0-2.77-.78-5.14-2.34-7.1-1.52-2.01-3.64-3.55-6.36-4.62-2.68-1.12-5.83-1.68-9.45-1.68s-6.66.56-9.38,1.68c-2.72,1.07-4.85,2.61-6.36,4.62-1.52,1.97-2.28,4.33-2.28,7.1s.74,4.91,2.21,6.83c.88,1.09,1.98,2,3.25,2.79-1.93.96-3.5,2.19-4.72,3.71-1.61,2.01-2.41,4.47-2.41,7.37s.83,5.45,2.48,7.64c1.65,2.14,3.95,3.82,6.9,5.03,2.95,1.16,6.39,1.74,10.32,1.74s7.44-.58,10.39-1.74c2.99-1.21,5.32-2.88,6.97-5.03,1.65-2.19,2.48-4.73,2.48-7.64s-.83-5.36-2.48-7.37ZM184.07,65.81c1.34-1.03,3.08-1.54,5.23-1.54s3.95.51,5.29,1.54c1.38,1.03,2.08,2.48,2.08,4.36s-.67,3.19-2.01,4.22c-1.3,1.03-3.08,1.54-5.36,1.54s-4-.51-5.29-1.54c-1.3-1.03-1.94-2.43-1.94-4.22,0-1.88.67-3.33,2.01-4.36ZM195.72,95.02c-1.56,1.21-3.71,1.81-6.43,1.81s-4.8-.6-6.36-1.81c-1.56-1.21-2.35-2.86-2.35-4.96s.78-3.73,2.35-4.89c1.56-1.21,3.68-1.81,6.36-1.81s4.87.6,6.43,1.81c1.61,1.16,2.41,2.79,2.41,4.89s-.8,3.75-2.41,4.96Z"/><polygon class="cls-9" points="139.48 76.53 129.23 76.53 129.23 85.31 116.61 85.31 137.13 57.1 125.74 57.1 103.63 86.85 103.63 94.15 128.89 94.15 128.89 104 139.48 104 139.48 94.15 147.12 94.15 147.12 85.31 139.48 85.31 139.48 76.53"/><path class="cls-9" d="M157.84,91.54c-1.79,0-3.33.6-4.62,1.81-1.25,1.16-1.88,2.7-1.88,4.62s.63,3.51,1.88,4.76c1.3,1.21,2.84,1.81,4.62,1.81s3.37-.6,4.62-1.81c1.25-1.25,1.88-2.84,1.88-4.76s-.62-3.46-1.88-4.62c-1.25-1.21-2.79-1.81-4.62-1.81Z"/><path class="cls-8" d="M108.43,12.7h2.67l2.75,5.5h2.14l-2.98-5.7c.23-.08.46-.15.65-.27.57-.31.99-.73,1.3-1.31.31-.58.46-1.23.46-1.96s-.15-1.42-.46-1.96c-.31-.58-.76-1-1.3-1.31-.57-.31-1.22-.46-1.99-.46h-5.12v12.97h1.8v-5.5h.08ZM111.83,6.92c.53,0,.95.19,1.26.54.31.35.46.85.46,1.46s-.15,1.08-.46,1.46c-.31.38-.73.54-1.26.54h-3.36v-4.04h3.36v.04Z"/><path class="cls-8" d="M120.28,18.2h6.46v-1.73h-6.46v-3.85h5.5v-1.73h-5.5v-3.96h6.46v-1.73h-8.26v13.01h1.8Z"/><path class="cls-8" d="M133.92,18.2l4.17-13.01h-1.95l-3.1,10.2-3.1-10.2h-1.95l4.17,13.01h1.76Z"/><path class="cls-8" d="M141.83,5.19h-1.8v12.97h1.8V5.19Z"/><path class="cls-8" d="M146.84,18.2h6.5v-1.73h-6.5v-3.85h5.5v-1.73h-5.5v-3.96h6.5v-1.73h-8.29v13.01h1.8Z"/><path class="cls-8" d="M164.42,18.2h1.84l3.13-13.01h-1.87l-2.25,10.2-2.68-10.2h-1.22l-2.64,10.2-2.29-10.2h-1.87l3.13,13.01h1.87l2.49-9.08,2.37,9.08Z"/><path class="cls-8" d="M179.67,14.54c0-.69-.11-1.27-.34-1.73-.23-.42-.54-.77-.92-1.04-.38-.27-.8-.46-1.3-.58-.46-.12-.96-.23-1.41-.35-.54-.12-1.03-.23-1.49-.35-.46-.12-.84-.31-1.11-.58-.27-.27-.42-.62-.42-1.12,0-.65.23-1.15.73-1.5.5-.35,1.18-.54,2.06-.54.5,0,.99.08,1.45.27.5.19.96.46,1.45.81l1.03-1.46c-.61-.46-1.26-.81-1.95-1.04-.65-.23-1.34-.35-2.03-.35-1.45,0-2.56.35-3.36,1-.8.65-1.18,1.62-1.18,2.81,0,.77.12,1.39.38,1.81.27.46.57.81.99,1.04.42.23.88.42,1.38.54.5.12.99.19,1.45.31.5.08.96.19,1.38.31.42.12.76.31,1.03.58.27.27.38.65.38,1.12,0,.65-.27,1.12-.76,1.46-.5.35-1.22.54-2.18.54-.69,0-1.34-.12-1.91-.31s-1.15-.54-1.6-.96l-1.11,1.39c.42.35.88.65,1.34.89.5.23.99.42,1.57.54.54.12,1.15.19,1.76.19,1.49,0,2.68-.31,3.48-.96.84-.65,1.22-1.58,1.22-2.77v.04Z"/><path class="cls-8" d="M195.91,13.54v-3.69c0-.96-.19-1.81-.57-2.54-.38-.73-.92-1.27-1.57-1.65-.69-.38-1.49-.58-2.37-.58s-1.72.19-2.37.58c-.69.38-1.22.96-1.57,1.65-.38.73-.57,1.54-.57,2.54v3.69c0,.96.19,1.81.57,2.5.38.73.92,1.27,1.57,1.65.69.38,1.49.58,2.37.58s1.72-.19,2.37-.58c.69-.38,1.22-.96,1.57-1.65.34-.69.57-1.54.57-2.5ZM194.08,13.58c0,.89-.23,1.58-.73,2.12-.5.54-1.15.81-1.95.81s-1.45-.27-1.95-.81c-.5-.54-.73-1.23-.73-2.12v-3.81c0-.89.23-1.62.73-2.12.5-.54,1.15-.81,1.95-.81s1.45.27,1.95.81c.5.54.73,1.23.73,2.12v3.81Z"/><path class="cls-8" d="M200.46,8.62l6.08,9.54h1.64V5.19h-1.8v9.7l-6.08-9.7h-1.64v12.97h1.8v-9.54Z"/><path class="cls-8" d="M114.32,36.4h4.09v.89c0,1.5-.38,2.66-1.15,3.5-.76.85-1.76,1.27-3.02,1.27s-2.29-.38-3.1-1.19c-.76-.81-1.18-1.85-1.18-3.19v-6c0-1.46.38-2.62,1.15-3.5.76-.89,1.76-1.31,3.02-1.31.84,0,1.64.27,2.41.85.76.58,1.26,1.35,1.53,2.42h3.06c-.23-1.19-.69-2.27-1.34-3.16-.65-.89-1.45-1.62-2.45-2.12-.96-.5-2.03-.77-3.21-.77-1.41,0-2.68.31-3.71.92-1.07.62-1.87,1.5-2.45,2.66-.57,1.15-.88,2.46-.88,4v6c0,1.42.31,2.69.88,3.77.57,1.08,1.41,1.92,2.48,2.5,1.07.58,2.33.89,3.75.89s2.68-.31,3.71-.92c1.07-.62,1.87-1.5,2.45-2.66.57-1.15.88-2.46.88-4v-3.54h-6.99v2.73l.08-.04Z"/><path class="cls-8" d="M135.76,25.05c-1.07-.62-2.29-.92-3.74-.92s-2.68.31-3.75.92c-1.07.62-1.87,1.5-2.48,2.62-.57,1.12-.88,2.42-.88,3.96v5.77c0,1.5.31,2.81.88,3.93.57,1.12,1.41,2,2.48,2.62,1.07.62,2.29.92,3.75.92s2.68-.31,3.74-.92c1.07-.62,1.87-1.5,2.48-2.62.57-1.12.88-2.42.88-3.93v-5.77c0-1.5-.31-2.81-.88-3.96-.57-1.15-1.41-2-2.48-2.62ZM136.21,37.44c0,1.39-.38,2.5-1.15,3.31-.76.85-1.8,1.27-3.06,1.27s-2.26-.42-3.02-1.27c-.77-.85-1.15-1.96-1.15-3.31v-5.97c0-1.39.38-2.5,1.15-3.35.76-.85,1.8-1.23,3.02-1.23s2.29.42,3.06,1.23c.76.85,1.15,1.96,1.15,3.35v5.97Z"/><path class="cls-8" d="M153.53,25.05c-1.07-.62-2.29-.92-3.75-.92s-2.68.31-3.74.92c-1.07.62-1.87,1.5-2.48,2.62-.57,1.12-.88,2.42-.88,3.96v5.77c0,1.5.31,2.81.88,3.93.57,1.12,1.41,2,2.48,2.62,1.07.62,2.29.92,3.74.92s2.68-.31,3.75-.92c1.07-.62,1.87-1.5,2.48-2.62.57-1.12.88-2.42.88-3.93v-5.77c0-1.5-.31-2.81-.88-3.96-.57-1.12-1.41-2-2.48-2.62ZM153.99,37.44c0,1.39-.38,2.5-1.15,3.31-.76.85-1.76,1.27-3.06,1.27s-2.26-.42-3.02-1.27c-.76-.85-1.15-1.96-1.15-3.31v-5.97c0-1.39.38-2.5,1.15-3.35.76-.85,1.8-1.23,3.02-1.23s2.29.42,3.06,1.23c.76.85,1.15,1.96,1.15,3.35v5.97Z"/><path class="cls-8" d="M167.71,36.4h4.09v.89c0,1.5-.38,2.66-1.15,3.5-.76.85-1.76,1.27-3.02,1.27s-2.29-.38-3.1-1.19c-.76-.81-1.15-1.85-1.15-3.19v-6c0-1.46.38-2.62,1.15-3.5.76-.89,1.76-1.31,3.02-1.31.84,0,1.64.27,2.41.85.76.58,1.26,1.35,1.53,2.42h3.06c-.23-1.19-.69-2.27-1.34-3.16-.65-.89-1.45-1.62-2.45-2.12-.96-.5-2.02-.77-3.21-.77-1.41,0-2.68.31-3.71.92-1.07.62-1.87,1.5-2.45,2.66-.57,1.15-.88,2.46-.88,4v6c0,1.42.31,2.69.88,3.77.61,1.08,1.41,1.92,2.48,2.5,1.07.58,2.33.89,3.75.89s2.68-.31,3.71-.92c1.07-.62,1.87-1.5,2.45-2.66.57-1.15.88-2.46.88-4v-3.54h-6.99v2.73l.04-.04Z"/><path class="cls-8" d="M181.85,24.32h-2.83v20.32h12.96v-2.73h-10.13v-17.59Z"/><path class="cls-8" d="M208.26,27.01v-2.69h-12.96v20.32h12.96v-2.73h-10.13v-6h8.6v-2.73h-8.6v-6.16h10.13Z"/><path class="cls-3" d="M84.43,43.39c0-2.8-.24-5.55-.73-8.2h-40.61v16.43h24.57c-1.59,5.67-4.96,10.54-9.43,13.9l12.67,10.17c8.35-7.95,13.53-19.44,13.53-32.26v-.03Z"/><path class="cls-5" d="M43.64,17.6c6.18,0,11.75,2.25,16.07,6.01l11.72-11.99C64.11,4.41,54.2,0,43.12,0,26.59,0,11.84,9.77,4.65,24.01l14.41,11.06c3.67-10.2,13.47-17.5,24.61-17.5l-.03.03Z"/><path class="cls-6" d="M4.9,63.27l13.89-11.12c-.86-2.59-1.32-5.33-1.32-8.17,0-3.11.55-6.1,1.56-8.88l-14.41-11.06C1.68,29.86,0,36.42,0,43.39s1.77,13.93,4.9,19.88Z"/><path class="cls-7" d="M18.79,52.14l-13.89,11.12c7.28,13.96,21.85,23.48,38.19,23.48,10.83,0,20.53-4.22,27.82-11.12l-12.67-10.17c-4.07,3.05-9.09,4.87-14.63,4.87-11.38,0-21.36-7.64-24.85-18.21l.03.03Z"/><path class="cls-9" d="M76.14,97.47l2.2,4.44,4.87.74-3.52,3.45.83,4.9-4.38-2.31-4.38,2.31.86-4.9-3.55-3.45,4.9-.74,2.17-4.44Z"/><g class="cls-12"><path class="cls-4" d="M79.32,101.29l-8.14,5.82-3.27-4.71,8.66-5.67,2.75,4.56Z"/></g><path class="cls-9" d="M59.31,97.47l2.17,4.44,4.9.74-3.55,3.45.86,4.9-4.38-2.31-4.38,2.31.83-4.9-3.52-3.45,4.87-.74,2.2-4.44Z"/><g class="cls-11"><path class="cls-4" d="M62.49,101.29l-8.14,5.82-3.27-4.71,8.63-5.67,2.78,4.56Z"/></g><path class="cls-9" d="M42.45,97.47l2.2,4.44,4.9.74-3.55,3.45.83,4.9-4.38-2.31-4.35,2.31.83-4.9-3.55-3.45,4.9-.74,2.17-4.44Z"/><g class="cls-1"><path class="cls-4" d="M45.63,101.29l-8.14,5.82-3.24-4.71,8.63-5.67,2.75,4.56Z"/></g><path class="cls-9" d="M25.62,97.47l2.17,4.44,4.9.74-3.52,3.45.83,4.9-4.38-2.31-4.38,2.31.83-4.9-3.52-3.45,4.9-.74,2.17-4.44Z"/><g class="cls-2"><path class="cls-4" d="M28.8,101.29l-8.14,5.82-3.27-4.71,8.63-5.67,2.78,4.56Z"/></g><path class="cls-9" d="M8.78,97.47l2.17,4.44,4.9.74-3.55,3.45.83,4.9-4.35-2.31-4.38,2.31.83-4.9-3.52-3.45,4.87-.74,2.2-4.44Z"/><g class="cls-10"><path class="cls-4" d="M11.97,101.29l-8.17,5.82-3.24-4.71,8.63-5.67,2.78,4.56Z"/></g></g></svg>