<?xml version="1.0" encoding="UTF-8"?><svg id="Layer_2" xmlns="http://www.w3.org/2000/svg" width="91" height="192" xmlns:xlink="http://www.w3.org/1999/xlink" viewBox="0 0 91 192"><defs><style>.cls-1{fill:#be167b;}.cls-1,.cls-2{stroke-width:0px;}.cls-2{fill:none;}.cls-3{clip-path:url(#clippath-1);}.cls-4{clip-path:url(#clippath);}</style><clipPath id="clippath"><rect class="cls-2" y="101" width="91" height="91"/></clipPath><clipPath id="clippath-1"><rect class="cls-2" width="90" height="90"/></clipPath></defs><g id="Layer_1-2"><g class="cls-4"><path class="cls-1" d="M83.6,192H7.4c-4.08,0-7.4-3.32-7.4-7.4v-76.2c0-4.08,3.32-7.4,7.4-7.4h76.19c4.08,0,7.4,3.32,7.4,7.4v76.2c0,4.08-3.32,7.4-7.4,7.4h.01ZM7.4,102c-3.53,0-6.4,2.87-6.4,6.4v76.2c0,3.53,2.87,6.4,6.4,6.4h76.19c3.53,0,6.4-2.87,6.4-6.4v-76.2c0-3.53-2.87-6.4-6.4-6.4H7.4Z"/><path class="cls-1" d="M56.57,112.67h-1.71v65.2h1.71v-65.2Z"/><path class="cls-1" d="M25.59,109.48h-6.37l-7.92,9.07v-9.07h-5.73v21.84h5.73v-5.47l2.15-2.46,5.86,7.93h6.72l-8.79-12.18,8.35-9.66Z"/><path class="cls-1" d="M36.5,109.48l-9.24,21.85h6.04l1.63-4.24h8.88l1.63,4.24h6.16l-9.27-21.85h-5.83ZM36.68,122.52l2.69-6.98,2.69,6.98h-5.38Z"/><path class="cls-1" d="M20.73,135.47c-1.66-.89-3.59-1.34-5.78-1.34H5.57v21.85h9.38c2.19,0,4.12-.45,5.78-1.34s2.96-2.16,3.9-3.79c.94-1.63,1.4-3.56,1.4-5.79s-.47-4.18-1.4-5.8c-.93-1.62-2.23-2.88-3.9-3.78h0ZM19.65,148.28c-.47.9-1.13,1.59-1.97,2.06s-1.83.7-2.96.7h-3.54v-11.98h3.54c1.13,0,2.12.23,2.96.7s1.5,1.15,1.97,2.04c.47.89.71,1.98.71,3.25s-.24,2.33-.71,3.23Z"/><path class="cls-1" d="M46.98,136.92c-1-1.03-2.17-1.83-3.52-2.39-1.35-.56-2.84-.84-4.47-.84s-3.09.28-4.45.84-2.54,1.36-3.55,2.39-1.79,2.23-2.34,3.6c-.56,1.37-.83,2.88-.83,4.53s.28,3.15.83,4.53c.56,1.37,1.34,2.57,2.34,3.6,1.01,1.03,2.19,1.83,3.55,2.39,1.36.56,2.84.84,4.45.84s3.12-.28,4.47-.84c1.35-.56,2.52-1.35,3.52-2.37s1.78-2.22,2.34-3.6c.56-1.38.85-2.9.85-4.54s-.28-3.15-.85-4.53c-.57-1.37-1.35-2.57-2.34-3.6h0ZM44.01,147.61c-.28.77-.66,1.43-1.15,1.98-.49.55-1.06.97-1.72,1.26-.66.29-1.37.44-2.14.44s-1.48-.14-2.14-.44c-.66-.29-1.24-.71-1.72-1.26-.49-.55-.87-1.21-1.15-1.98-.28-.77-.42-1.62-.42-2.56s.14-1.81.42-2.57c.28-.76.66-1.42,1.15-1.97.49-.55,1.06-.97,1.72-1.26s1.37-.44,2.14-.44,1.48.15,2.14.44,1.24.71,1.72,1.26c.49.55.87,1.21,1.15,1.97.28.76.42,1.62.42,2.57s-.14,1.79-.42,2.56Z"/><path class="cls-1" d="M21.49,169.32c-.73-.47-1.53-.84-2.42-1.12-.88-.28-1.77-.51-2.65-.7-.88-.19-1.7-.37-2.43-.55-.74-.18-1.33-.41-1.78-.69s-.67-.66-.67-1.14c0-.37.11-.71.34-1,.23-.29.6-.53,1.12-.7s1.21-.27,2.06-.27c.96,0,1.94.14,2.96.42,1.02.28,2.05.7,3.09,1.26l1.9-4.59c-1.08-.62-2.31-1.1-3.7-1.42-1.38-.32-2.79-.48-4.23-.48-2.14,0-3.93.32-5.37.97-1.44.65-2.51,1.5-3.23,2.56s-1.08,2.25-1.08,3.56c0,1.17.23,2.13.69,2.89.46.76,1.05,1.37,1.78,1.84.73.47,1.53.85,2.42,1.14.88.29,1.77.53,2.65.72.88.19,1.69.37,2.42.56.73.19,1.32.43,1.78.72.46.29.69.69.69,1.19,0,.35-.12.66-.36.92-.24.26-.62.47-1.14.62-.52.16-1.21.23-2.06.23-1.27,0-2.54-.2-3.82-.61-1.28-.41-2.41-.92-3.39-1.54l-2.03,4.56c1.04.71,2.39,1.28,4.04,1.73,1.65.45,3.38.67,5.17.67,2.16,0,3.96-.32,5.38-.97,1.42-.64,2.5-1.5,3.21-2.58.72-1.07,1.08-2.24,1.08-3.51,0-1.14-.22-2.1-.67-2.86-.45-.76-1.04-1.37-1.76-1.84h.01Z"/><path class="cls-1" d="M41.87,166.99h-8.43v-8.21h-6.18v21.85h6.18v-8.52h8.43v8.52h6.18v-21.85h-6.18v8.21Z"/><path class="cls-1" d="M65.22,128.7c1.07,1.02,2.34,1.8,3.81,2.36,1.47.55,3.06.83,4.79.83,2.02,0,3.82-.36,5.41-1.08,1.59-.72,2.92-1.73,3.98-3.04l-3.93-3.56c-.71.83-1.48,1.47-2.33,1.9-.84.44-1.78.66-2.82.66-.89,0-1.72-.14-2.47-.44-.75-.29-1.39-.71-1.92-1.26s-.95-1.21-1.25-1.98c-.3-.77-.45-1.62-.45-2.56s.15-1.79.45-2.56c.3-.77.72-1.43,1.25-1.98.53-.55,1.17-.97,1.92-1.26.75-.29,1.57-.44,2.47-.44,1.04,0,1.98.22,2.82.66.84.44,1.62,1.07,2.33,1.9l3.93-3.56c-1.06-1.33-2.39-2.35-3.98-3.06-1.59-.71-3.4-1.06-5.41-1.06-1.73,0-3.32.28-4.79.83s-2.74,1.34-3.81,2.36c-1.07,1.02-1.91,2.22-2.51,3.6-.6,1.38-.91,2.91-.91,4.57s.3,3.19.91,4.57c.6,1.38,1.44,2.58,2.51,3.6Z"/><path class="cls-1" d="M67.56,152.17h9.26l1.7,4.24h6.43l-9.67-21.85h-6.09l-9.64,21.85h6.3l1.7-4.24h0ZM69.39,147.61l2.8-6.98,2.8,6.98h-5.61.01Z"/><path class="cls-1" d="M81.4,171.88c.79-1.2,1.19-2.62,1.19-4.26s-.4-3.11-1.19-4.32c-.79-1.22-1.91-2.15-3.35-2.79-1.45-.64-3.17-.97-5.17-.97h-9.99v21.85h6.18v-5.8h3.37l3.96,5.8h6.62l-4.73-6.89c1.32-.63,2.36-1.49,3.1-2.62h.01ZM75.39,165.24c.63.56.95,1.35.95,2.37s-.32,1.78-.95,2.34-1.6.84-2.89.84h-3.43v-6.4h3.43c1.29,0,2.25.28,2.89.84h0Z"/></g><g class="cls-3"><path class="cls-1" d="M37,77.83l.35.91h1.82l-2.28-5.22h-1.73l-1.98,4.54-1.68-2.24,2.08-2.3h-1.92l-1.72,1.89v-1.89h-1.73v5.22h1.73v-1.29l.39-.43,1.31,1.72h3.02l.35-.91h1.99ZM35.5,76.57l.5-1.31.5,1.31h-1.01,0Z"/><path class="cls-1" d="M43.33,78.44c.44-.21.79-.51,1.03-.9.25-.39.38-.86.38-1.4s-.13-1-.38-1.39c-.25-.39-.59-.69-1.03-.9-.44-.21-.95-.32-1.54-.32h-2.57v5.22h2.57c.58,0,1.1-.1,1.54-.32h0ZM40.99,77.38v-2.47h.74c.25,0,.47.04.65.14.19.1.33.23.44.42s.16.4.16.67-.05.5-.16.68-.25.33-.44.42c-.19.1-.4.14-.65.14h-.74Z"/><path class="cls-1" d="M46.72,78.67c.36.14.76.2,1.19.2s.81-.07,1.17-.2c.36-.13.67-.32.93-.57.26-.25.47-.53.62-.87.15-.33.22-.7.22-1.09s-.07-.76-.22-1.1c-.15-.33-.35-.62-.62-.86-.26-.25-.58-.44-.93-.57-.36-.13-.75-.2-1.18-.2s-.82.07-1.18.2c-.36.14-.67.32-.94.57-.26.25-.47.53-.61.86-.15.33-.22.7-.22,1.1s.07.76.22,1.09c.15.33.35.62.61.87.26.25.58.44.94.57ZM46.81,75.59c.06-.17.14-.3.25-.41.1-.11.23-.19.38-.26.14-.06.29-.09.46-.09s.31.03.46.09c.14.06.26.14.38.26.11.11.19.25.25.41.06.17.09.35.09.55s-.03.39-.09.55c-.06.17-.14.3-.25.41s-.23.19-.38.25c-.14.06-.29.09-.46.09s-.31-.03-.46-.09c-.14-.06-.26-.14-.38-.25s-.19-.25-.25-.41c-.06-.17-.09-.35-.09-.55s.03-.39.09-.55Z"/><path class="cls-1" d="M55.06,75.97c-.17-.11-.36-.2-.56-.28-.2-.07-.41-.13-.61-.17-.21-.04-.4-.08-.57-.11s-.31-.07-.41-.13c-.1-.05-.16-.12-.16-.21,0-.06.02-.11.06-.17.05-.05.11-.09.21-.12.1-.03.23-.04.4-.04.22,0,.47.03.7.1.24.07.49.17.75.29l.53-1.28c-.27-.16-.58-.27-.92-.35-.34-.07-.69-.11-1.04-.11-.54,0-.98.08-1.34.24s-.63.38-.81.64-.27.56-.27.89c0,.28.05.51.16.7s.24.34.41.45.36.21.57.28c.21.07.41.13.62.17.2.05.39.08.56.12s.31.08.41.14c.1.05.16.13.16.22,0,.06-.02.11-.07.15-.04.04-.11.07-.21.1s-.23.03-.4.03c-.28,0-.58-.04-.89-.13-.31-.09-.58-.2-.83-.35l-.57,1.28c.26.16.6.28,1.01.39.4.1.83.15,1.27.15.54,0,.99-.08,1.35-.24.36-.17.63-.38.81-.64.18-.26.27-.56.27-.88,0-.27-.05-.5-.16-.68-.1-.19-.24-.33-.41-.45h0Z"/><path class="cls-1" d="M59.33,75.38h-1.63v-1.85h-1.76v5.22h1.76v-1.93h1.63v1.93h1.76v-5.22h-1.76v1.85Z"/><path class="cls-1" d="M42.32,83.98l-1.11-.99c-.16.19-.32.34-.51.45-.19.1-.4.16-.63.16-.19,0-.35-.03-.5-.09-.15-.06-.28-.15-.38-.26-.1-.11-.19-.25-.25-.41-.06-.17-.09-.35-.09-.54s.03-.38.09-.54c.06-.17.14-.3.25-.41.1-.11.23-.2.38-.26.15-.06.31-.09.5-.09.23,0,.44.05.63.16.19.1.36.25.51.45l1.11-.99c-.25-.34-.58-.6-.98-.77-.4-.18-.85-.27-1.36-.27-.42,0-.8.07-1.16.19-.35.14-.66.32-.92.56-.26.24-.47.53-.61.86-.14.33-.22.7-.22,1.1s.08.77.22,1.1c.14.33.34.62.61.86.26.24.57.44.92.56.35.13.74.19,1.16.19.51,0,.97-.09,1.36-.27.4-.18.72-.43.98-.77h0Z"/><path class="cls-1" d="M44.25,79.69l-2.28,5.22h1.79l.35-.91h1.99l.35.91h1.82l-2.28-5.22h-1.75ZM44.6,82.73l.5-1.31.5,1.31h-1.01,0Z"/><path class="cls-1" d="M52.92,82.69c.2-.29.29-.64.29-1.04s-.1-.75-.29-1.05c-.19-.29-.46-.53-.82-.68-.35-.16-.78-.24-1.27-.24h-2.51v5.22h1.76v-1.31h.48l.89,1.31h1.88l-1.1-1.61c.29-.15.53-.35.7-.6h0ZM51.26,81.21c.12.11.17.25.17.45s-.06.34-.17.45c-.12.11-.3.17-.54.17h-.64v-1.22h.64c.24,0,.42.05.54.17h0Z"/><path class="cls-1" d="M76.82,13.18C68.32,4.68,57.02,0,45,0S21.68,4.68,13.18,13.18C4.68,21.68,0,32.98,0,45s4.68,23.32,13.18,31.82c8.5,8.5,19.8,13.18,31.82,13.18s23.32-4.68,31.82-13.18c8.5-8.5,13.18-19.8,13.18-31.82s-4.68-23.32-13.18-31.82ZM76.53,76.53c-8.42,8.42-19.62,13.06-31.53,13.06s-23.11-4.64-31.53-13.06C5.05,68.11.41,56.91.41,45S5.05,21.89,13.47,13.47C21.89,5.05,33.09.41,45,.41s23.11,4.63,31.53,13.06c8.42,8.42,13.06,19.62,13.06,31.53s-4.64,23.11-13.06,31.53h0Z"/><path class="cls-1" d="M45,1.94C21.22,1.94,1.93,21.22,1.93,45s19.28,43.07,43.07,43.07,43.07-19.28,43.07-43.07S68.78,1.94,45,1.94ZM74.74,74.74c-3.86,3.86-8.36,6.89-13.37,9.01-5.18,2.19-10.69,3.31-16.37,3.31s-11.18-1.11-16.36-3.31c-5.01-2.11-9.5-5.15-13.36-9.01-3.86-3.86-6.89-8.36-9.02-13.37-2.19-5.18-3.31-10.69-3.31-16.37s1.11-11.18,3.31-16.36c2.11-5.01,5.15-9.5,9.02-13.36,3.86-3.86,8.36-6.89,13.36-9.02,5.18-2.19,10.69-3.31,16.36-3.31s11.18,1.11,16.37,3.31c5.01,2.11,9.5,5.15,13.37,9.02,3.86,3.86,6.89,8.36,9.01,13.36,2.19,5.18,3.31,10.69,3.31,16.36s-1.11,11.18-3.31,16.37c-2.12,5.01-5.15,9.5-9.01,13.37Z"/><path class="cls-1" d="M62.63,20.91h-9.28l-9.97,12.19V10.36h-16.91l-.03.61s4.49.46,6.74,3.34c1.03,1.32,1.46,2.95,1.26,4.87-3.3-1.64-6.08-1.79-8.05-.47-3,2.02-3.45,6.98-1.27,13.96-.5,1.58-2.06,6.43-3.08,9.75-.38.02-.77.05-1.16.08-.25,0-.5.04-.73.07l-.38.04-.05.03c-.7.15-1.35.4-1.94.75-2.23,1.31-3.44,3.87-3.39,7.21.05,2.97,1.07,6.32,2.9,9.43,2.94,5.01,7.19,8.12,11.08,8.12,1.23,0,2.38-.31,3.41-.91,1.66-.97,2.8-2.62,3.32-4.78l11.13,1.33c2.71,2.18,6.62,4.76,10.06,4.76.77,0,1.48-.13,2.12-.38l4.18,5.06h11.21l-26.35-33.14,15.18-19.19ZM72.53,72.62h-9.65l-4.28-5.19-.21.09c-.62.28-1.33.41-2.09.41-3.29,0-7.12-2.54-9.75-4.67l-.07-.05-11.85-1.42-.06.27c-.45,2.11-1.52,3.73-3.1,4.65-.94.55-1.98.82-3.1.82-3.68,0-7.73-3-10.56-7.82-1.78-3.02-2.77-6.27-2.82-9.13-.05-3.11,1.05-5.48,3.09-6.68.56-.32,1.16-.56,1.81-.69h.06s.02-.03.02-.03l.25-.03c.22-.03.46-.05.7-.07.47-.04.92-.08,1.37-.1l.21-.02.06-.2c1.05-3.39,2.7-8.53,3.18-10.03l.03-.09-.03-.09c-2.12-6.75-1.76-11.49,1.01-13.36,1.84-1.25,4.56-1.01,7.81.7l.38.2.06-.43c.33-2.27-.12-4.21-1.33-5.76-1.23-1.57-3.01-2.46-4.49-2.95h13.6v23.83l10.86-13.28h7.73l-14.7,18.58,25.86,32.53h.01Z"/><path class="cls-1" d="M59.62,22.37h-5.58l-12.11,14.81V11.83h-9.76c4.36.26,3.66,8.32,3.66,8.32v21.69c.89,1.56,1.88,3.14,2.93,4.7.7,1.04,1.41,2.04,2.12,2.99l.03.03.02.04c.33.44.67.88,1,1.31v-5.02l13.42,16.27,3.78,4.59,4.15,5.03h7.49l-25.18-31.67,14.03-17.73h0Z"/><path class="cls-1" d="M22.55,55.85c.19.46.64.93,1.64,1.22,2.57-.19,5.26-.48,8.1-.88,1.92-.28,4.58-.7,6.59-1.07-1.56-1.89-3.11-3.94-4.58-6.14-1.58-2.35-2.99-4.69-4.21-6.97-1.67,2.51-3.72,5.78-5.24,8.42-.8,1.39-1.55,2.75-2.26,4.09-.07.17-.28.73-.04,1.33Z"/><path class="cls-1" d="M22.97,47.72c1.81-2.69,3.91-5.68,5.75-8.4-.94-1.99-1.74-3.9-2.35-5.72-.91,2.84-3.35,10.49-3.83,12.23-.59,2.14.43,1.9.43,1.9h0Z"/><path class="cls-1" d="M55.04,62.7c-3.47-.56-9.19-5.53-14.6-12.79-.73-.97-1.45-1.99-2.15-3.04-1.09-1.61-2.08-3.22-2.98-4.79-5.06-8.85-7.02-16.61-4.34-18.42.98-.67,2.48-.44,4.3.5v-2.86c-3.33-2.01-6.19-2.6-8.02-1.36-4.49,3.03-1.12,15.9,7.54,28.75,8.44,12.52,18.77,20.39,23.45,18l.06-.04-2.16-2.62-1.08-1.31h0Z"/><path class="cls-1" d="M41.71,58.35l-7.79.36-2.52.12c-.09.61-.25,1.18-.47,1.66-.39.89-.98,1.55-1.76,1.9-2.74,1.24-6.47-1.78-8.75-6.84-2.28-5.06-2.24-10.26.5-11.5.1-.04.2-.08.31-.12-.98,0-1.89.22-2.71.7-3.7,2.18-3.43,8.75.03,14.65s8.79,8.87,12.49,6.69c1.67-.97,2.62-2.84,2.86-5.13l11.89,1.42c-1.34-1.15-2.71-2.47-4.07-3.92h-.01Z"/><path class="cls-1" d="M59.68,27.01l-.22,1.03c3.46,1.68,6.6,5.58,8.42,10.42,1.57,4.19,1.93,8.55,1,11.98l-.47,1.73,1.36-1.18c3.7-3.23,4.46-9.5,1.84-15.26-2.45-5.41-7.25-8.92-11.92-8.73h0Z"/><path class="cls-1" d="M62.62,50.96l1.36-1.19c2.67-2.33,3.22-6.85,1.34-10.99-1.76-3.88-5.21-6.4-8.59-6.27l-.22,1.03c2.41,1.18,4.6,3.9,5.88,7.3,1.1,2.93,1.36,5.99.7,8.38l-.47,1.73Z"/><path class="cls-1" d="M58.01,50.39l1.36-1.19c1.8-1.57,2.17-4.6.92-7.36-1.18-2.6-3.49-4.28-5.76-4.19l-.22,1.03c1.52.74,2.92,2.47,3.73,4.64.7,1.87.86,3.82.45,5.33l-.47,1.73h0Z"/></g></g></svg>