<?xml version="1.0" encoding="UTF-8"?><svg id="Layer_2" xmlns="http://www.w3.org/2000/svg" width="451" height="39" viewBox="0 0 451 39"><defs><style>.cls-1{fill:#3c4249;stroke-width:0px;}</style></defs><g id="Layer_1-2"><path class="cls-1" d="M14.98,0h14.98l-14.98,39H0L14.98,0Z"/><path class="cls-1" d="M45.05,0h14.98l-14.98,39h-14.98L45.05,0Z"/><path class="cls-1" d="M75.13,0h14.98l-14.98,39h-14.98L75.13,0Z"/><path class="cls-1" d="M105.2,0h14.98l-14.98,39h-14.98L105.2,0Z"/><path class="cls-1" d="M135.28,0h14.98l-14.98,39h-14.98L135.28,0Z"/><path class="cls-1" d="M165.35,0h14.98l-14.98,39h-14.98L165.35,0Z"/><path class="cls-1" d="M195.43,0h14.98l-14.98,39h-14.98L195.43,0Z"/><path class="cls-1" d="M225.5,0h14.98l-14.98,39h-14.98L225.5,0Z"/><path class="cls-1" d="M255.57,0h14.98l-14.98,39h-14.98L255.57,0Z"/><path class="cls-1" d="M285.65,0h14.98l-14.98,39h-14.98L285.65,0Z"/><path class="cls-1" d="M315.72,0h14.98l-14.98,39h-14.98L315.72,0Z"/><path class="cls-1" d="M345.8,0h14.98l-14.98,39h-14.98L345.8,0Z"/><path class="cls-1" d="M375.87,0h14.98l-14.98,39h-14.98L375.87,0Z"/><path class="cls-1" d="M405.95,0h14.98l-14.98,39h-14.98L405.95,0Z"/><path class="cls-1" d="M436.02,0h14.98l-14.98,39h-14.98L436.02,0Z"/></g></svg>