<?xml version="1.0" encoding="UTF-8"?><svg id="Layer_2" xmlns="http://www.w3.org/2000/svg" width="60" height="59" xmlns:xlink="http://www.w3.org/1999/xlink" viewBox="0 0 60 59"><defs><style>.cls-1{fill:none;}.cls-1,.cls-2{stroke-width:0px;}.cls-3{clip-path:url(#clippath);}.cls-2{fill:#fff;}</style><clipPath id="clippath"><rect class="cls-1" width="60" height="59"/></clipPath></defs><g id="Layer_1-2"><g class="cls-3"><path class="cls-2" d="M55.12,59H4.88c-2.69,0-4.88-2.15-4.88-4.8V4.8C0,2.15,2.19,0,4.88,0h50.23c2.69,0,4.88,2.15,4.88,4.8v49.4c0,2.65-2.19,4.8-4.88,4.8h0ZM4.88.65C2.55.65.66,2.51.66,4.8v49.4c0,2.29,1.89,4.15,4.22,4.15h50.23c2.33,0,4.22-1.86,4.22-4.15V4.8c0-2.29-1.89-4.15-4.22-4.15H4.88Z"/><path class="cls-2" d="M37.3,7.57h-1.13v42.27h1.13V7.57Z"/><path class="cls-2" d="M16.87,5.5h-4.2l-5.22,5.88v-5.88h-3.78v14.16h3.78v-3.55l1.42-1.59,3.86,5.14h4.43l-5.8-7.9,5.51-6.26Z"/><path class="cls-2" d="M24.07,5.5l-6.09,14.17h3.98l1.07-2.75h5.86l1.07,2.75h4.06l-6.11-14.17h-3.84ZM24.18,13.95l1.77-4.53,1.77,4.53h-3.55Z"/><path class="cls-2" d="M13.67,22.35c-1.09-.58-2.37-.87-3.81-.87H3.67v14.17h6.18c1.44,0,2.72-.29,3.81-.87,1.1-.58,1.95-1.4,2.57-2.46.62-1.06.92-2.31.92-3.75s-.31-2.71-.92-3.76c-.61-1.05-1.47-1.87-2.57-2.45h0ZM12.96,30.65c-.31.58-.75,1.03-1.3,1.34-.55.3-1.21.45-1.95.45h-2.33v-7.77h2.33c.74,0,1.4.15,1.95.45s.99.75,1.3,1.32c.31.58.47,1.28.47,2.11s-.16,1.51-.47,2.09Z"/><path class="cls-2" d="M30.98,23.29c-.66-.67-1.43-1.19-2.32-1.55s-1.87-.54-2.95-.54-2.04.18-2.93.54c-.9.36-1.68.88-2.34,1.55-.67.67-1.18,1.45-1.54,2.33-.37.89-.55,1.87-.55,2.94s.18,2.04.55,2.94c.37.89.88,1.67,1.54,2.33.67.67,1.44,1.19,2.34,1.55.9.36,1.87.54,2.93.54s2.06-.18,2.95-.54c.89-.36,1.66-.88,2.32-1.54.66-.66,1.17-1.44,1.54-2.33.37-.89.56-1.88.56-2.94s-.18-2.04-.56-2.94c-.38-.89-.89-1.67-1.54-2.33h0ZM29.02,30.22c-.18.5-.44.93-.76,1.28-.32.36-.7.63-1.13.82s-.9.29-1.41.29-.98-.09-1.41-.29c-.44-.19-.82-.46-1.13-.82-.32-.36-.57-.78-.76-1.28-.19-.5-.28-1.05-.28-1.66s.09-1.17.28-1.67c.18-.49.43-.92.76-1.28.32-.36.7-.63,1.13-.82.43-.19.9-.29,1.41-.29s.98.1,1.41.29c.43.19.82.46,1.13.82.32.36.57.78.76,1.28.18.49.28,1.05.28,1.67s-.09,1.16-.28,1.66Z"/><path class="cls-2" d="M14.17,44.3c-.48-.3-1.01-.54-1.6-.73-.58-.18-1.17-.33-1.75-.45-.58-.12-1.12-.24-1.6-.36-.49-.12-.88-.27-1.17-.45-.3-.18-.44-.43-.44-.74,0-.24.07-.46.22-.65.15-.19.4-.34.74-.45.34-.11.8-.17,1.36-.17.63,0,1.28.09,1.95.27.67.18,1.35.45,2.04.82l1.25-2.98c-.71-.4-1.52-.71-2.44-.92-.91-.21-1.84-.31-2.79-.31-1.41,0-2.59.21-3.54.63-.95.42-1.65.97-2.13,1.66-.47.69-.71,1.46-.71,2.31,0,.76.15,1.38.45,1.87.3.49.69.89,1.17,1.19s1.01.55,1.6.74c.58.19,1.17.34,1.75.47.58.12,1.11.24,1.6.36.48.12.87.28,1.17.47.3.19.45.45.45.77,0,.23-.08.43-.24.6-.16.17-.41.3-.75.4-.34.1-.8.15-1.36.15-.84,0-1.67-.13-2.52-.4-.84-.27-1.59-.6-2.24-1l-1.34,2.96c.69.46,1.58.83,2.66,1.12,1.09.29,2.23.43,3.41.43,1.42,0,2.61-.21,3.55-.63.94-.41,1.65-.97,2.12-1.67.47-.69.71-1.45.71-2.28,0-.74-.14-1.36-.44-1.85-.3-.49-.69-.89-1.16-1.19h0Z"/><path class="cls-2" d="M27.61,42.78h-5.56v-5.32h-4.07v14.17h4.07v-5.52h5.56v5.52h4.07v-14.17h-4.07v5.32Z"/><path class="cls-2" d="M43,17.96c.71.66,1.54,1.17,2.51,1.53.97.36,2.02.54,3.16.54,1.33,0,2.52-.23,3.57-.7,1.05-.47,1.92-1.12,2.62-1.97l-2.59-2.31c-.47.54-.98.95-1.54,1.23-.55.29-1.17.43-1.86.43-.59,0-1.13-.09-1.63-.29-.49-.19-.92-.46-1.27-.82-.35-.36-.63-.78-.82-1.28-.2-.5-.3-1.05-.3-1.66s.1-1.16.3-1.66c.2-.5.47-.93.82-1.28.35-.36.77-.63,1.27-.82.49-.19,1.04-.29,1.63-.29.69,0,1.31.14,1.86.43.55.29,1.07.69,1.54,1.23l2.59-2.31c-.7-.86-1.58-1.52-2.62-1.98-1.05-.46-2.24-.69-3.57-.69-1.14,0-2.19.18-3.16.54-.97.36-1.81.87-2.51,1.53-.71.66-1.26,1.44-1.65,2.33-.4.89-.6,1.89-.6,2.96s.2,2.07.6,2.96c.4.89.95,1.67,1.65,2.33Z"/><path class="cls-2" d="M44.54,33.18h6.11l1.12,2.75h4.24l-6.38-14.17h-4.01l-6.36,14.17h4.15l1.12-2.75h0ZM45.75,30.22l1.85-4.53,1.85,4.53h-3.7,0Z"/><path class="cls-2" d="M53.67,45.96c.52-.78.79-1.7.79-2.76s-.26-2.02-.79-2.8c-.52-.79-1.26-1.39-2.21-1.81-.96-.41-2.09-.63-3.41-.63h-6.59v14.17h4.07v-3.76h2.22l2.61,3.76h4.36l-3.12-4.47c.87-.41,1.56-.97,2.04-1.7h0ZM49.71,41.65c.42.36.63.88.63,1.54s-.21,1.15-.63,1.52c-.42.36-1.05.54-1.91.54h-2.26v-4.15h2.26c.85,0,1.48.18,1.91.54h0Z"/></g></g></svg>